<svg width="27" height="54" viewBox="0 0 27 54" fill="none" xmlns="http://www.w3.org/2000/svg">
<g clip-path="url(#clip0)">
<path opacity="0.2" d="M27.3249 51.448V50.686C26.9102 50.0698 26.5425 49.4233 26.2249 48.752C26.4722 48.1613 26.7182 47.5706 26.9629 46.98L27.1429 46.548L27.3229 46.981V44.993L27.1429 45.426L26.3529 43.531L25.3999 41.238C25.8259 40.11 26.5569 39.413 27.3219 39.413V38.981C26.8397 39.0335 26.382 39.2208 26.0014 39.5215C25.6208 39.8222 25.3326 40.224 25.1699 40.681L25.1169 40.553C25.6736 39.211 26.2316 37.87 26.7909 36.53L27.1549 35.657L27.3259 36.105V34.125L27.1459 34.558L25.7329 31.167C26.261 31.2241 26.7917 31.2538 27.3229 31.256V31.256V30.824C26.7275 30.8196 26.1328 30.7808 25.5419 30.708C25.0572 29.544 24.5719 28.3806 24.0859 27.218L23.8859 27.301L24.0859 27.217L23.8039 26.541L22.8099 24.158L22.6599 23.8C24.1726 23.3404 25.7449 23.1069 27.3259 23.107V22.676C25.6884 22.6782 24.0603 22.9236 22.4949 23.404C21.4696 20.9373 20.4419 18.4706 19.4119 16.004L18.3119 13.368L19.5519 10.395C20.6406 7.7883 21.7259 5.18197 22.8079 2.57597L23.5079 0.888969C23.8829 0.617969 24.2319 0.342969 24.5569 0.0669687C25.4247 0.83367 26.21 1.68898 26.8999 2.61897V2.61897C26.9539 2.69297 26.9999 2.76897 27.0549 2.84397L27.0609 2.85297C26.5676 3.57204 26.1364 4.33178 25.7719 5.12397C25.0099 6.7483 24.6045 8.51693 24.5829 10.311V10.311C24.578 10.8731 24.6319 11.4341 24.7439 11.985C25.1209 13.755 26.1569 14.943 27.3219 14.943V14.511C26.3659 14.511 25.4999 13.459 25.1659 11.895C25.0608 11.3733 25.0102 10.8421 25.0149 10.31V10.31C25.0334 8.57669 25.4257 6.86781 26.1649 5.29997C26.4966 4.58845 26.8842 3.90432 27.3239 3.25397V2.27597H27.1839C26.501 1.36769 25.7288 0.530171 24.8789 -0.224031L24.8999 -0.240031L24.6999 -0.400031L24.5669 -0.251031L24.6959 -0.404031L24.6339 -0.456031H23.6059L23.1579 0.613969L23.0469 0.693969C22.9589 0.758969 22.8709 0.823969 22.7779 0.885969C21.9481 1.43482 21.0694 1.90582 20.1529 2.29297C19.4841 2.57942 18.7973 2.82193 18.0969 3.01897L18.2829 2.57497L19.4219 -0.158031L19.0219 -0.324031L17.8849 2.40897L17.5739 3.15397C14.9149 3.82565 12.1265 3.79118 9.48489 3.05397L9.21789 2.41297C8.83856 1.4983 8.45823 0.585635 8.07689 -0.325031L7.67689 -0.158031C8.05889 0.751969 8.43956 1.66297 8.81889 2.57497L9.01889 2.49197L8.81889 2.57497L8.95389 2.89697C8.39541 2.72597 7.84632 2.52569 7.30889 2.29697C6.39302 1.90832 5.51496 1.43598 4.68589 0.885969C4.37589 0.679969 4.07189 0.458969 3.77889 0.231969L3.49089 -0.457031H2.91189L2.80589 -0.439031L2.56789 -0.218031C1.72033 0.533414 0.949843 1.36754 0.267893 2.27197H0.140893V3.25497C0.580941 3.90476 0.968501 4.58859 1.29989 5.29997C2.03925 6.86777 2.43152 8.57668 2.44989 10.31V10.31C2.45527 10.8437 2.405 11.3766 2.29989 11.9C1.96389 13.46 1.09989 14.512 0.141893 14.512V14.944C1.30589 14.944 2.34189 13.756 2.71989 11.986C2.83187 11.4351 2.88583 10.8741 2.88089 10.312C2.85953 8.5179 2.4541 6.74922 1.69189 5.12497C1.32726 4.33163 0.894997 3.57115 0.399893 2.85197V2.85197L0.407893 2.84097C0.455893 2.76997 0.507893 2.69897 0.553893 2.62897L0.558893 2.61997C1.2478 1.68945 2.03243 0.833763 2.89989 0.0669687C3.07189 0.214969 3.24389 0.366969 3.42389 0.504969L4.28589 2.57497C4.84856 3.9303 5.41523 5.28563 5.98589 6.64097C6.50923 7.89163 7.03123 9.14264 7.55189 10.394L7.69289 10.731C8.05756 11.6096 8.42423 12.4883 8.79289 13.367C8.42289 14.2456 8.05523 15.1233 7.68989 16C7.14789 17.3046 6.60389 18.6083 6.05789 19.911C5.58389 21.0443 5.11123 22.1776 4.63989 23.311C3.17636 22.8928 1.662 22.6791 0.139893 22.676V23.108C1.60484 23.1092 3.06272 23.3111 4.47289 23.708L4.28589 24.159L3.29389 26.542L3.01289 27.219L1.54289 30.751C1.01189 30.799 0.557893 30.825 0.142893 30.825V31.257C0.512893 31.257 0.904893 31.239 1.35489 31.203L0.140893 34.118V36.118L0.395893 36.731L1.62389 39.68C1.43715 39.469 1.2095 39.2982 0.954747 39.1778C0.699993 39.0575 0.423449 38.9902 0.141893 38.98V38.98V39.412C0.531538 39.4626 0.899786 39.6193 1.20645 39.865C1.51312 40.1106 1.74642 40.4358 1.88089 40.805L0.746893 43.531L0.140893 44.984V46.984L1.04089 49.14C0.771333 49.6705 0.470815 50.1847 0.140893 50.68V51.447C0.780244 52.328 1.50327 53.1451 2.29989 53.887L2.57089 54.14L2.56289 54.147L2.74089 54.299L2.89589 54.444L2.90289 54.438L2.97589 54.5H3.73989L3.49989 53.927C3.93189 53.575 4.31689 53.284 4.68989 53.036C5.33631 52.609 6.01274 52.2294 6.71389 51.9L7.74289 54.365L8.14289 54.199L7.09989 51.715C9.18588 50.7829 11.4432 50.2955 13.7279 50.284C15.898 50.2969 18.0441 50.7387 20.0429 51.584L18.9589 54.2L19.3589 54.366L20.4419 51.766C21.2548 52.1249 22.0371 52.5496 22.7809 53.036C23.0689 53.228 23.3719 53.45 23.6959 53.702L23.4879 54.202L23.8879 54.368L24.0499 53.981C24.1672 54.0783 24.2836 54.1783 24.3989 54.281L24.5449 54.452L24.5629 54.438L24.5759 54.45L24.6389 54.378C24.6659 54.357 24.6929 54.337 24.7179 54.315L24.9069 54.152L24.8949 54.141C25.7986 53.3339 26.6129 52.432 27.3239 51.451V51.451L27.3249 51.448ZM25.9569 43.7L26.8979 45.958L26.9139 45.987L26.5699 46.812L25.9979 48.186C25.6894 47.4619 25.4468 46.7115 25.2729 45.944C25.1043 45.1784 25.0188 44.3969 25.0179 43.613V43.613C25.0132 43.0798 25.0638 42.5477 25.1689 42.025C25.1789 41.981 25.1969 41.934 25.2079 41.89L25.9569 43.7ZM26.9129 35.12L26.3929 36.367C25.8889 37.5756 25.3852 38.7846 24.8819 39.994L22.8139 35.036L20.6469 29.836C22.1108 30.4726 23.6569 30.9004 25.2399 31.107L26.5509 34.253L26.9129 35.12ZM15.8879 39.08C15.5539 40.647 14.6879 41.7 13.7319 41.7C12.7759 41.7 11.9099 40.647 11.5759 39.08C11.34 37.7813 11.374 36.4479 11.6759 35.163C11.877 34.2423 12.1754 33.3456 12.5659 32.488C12.8996 31.7765 13.2888 31.0923 13.7299 30.442C14.1727 31.092 14.5639 31.7758 14.8999 32.487C15.2895 33.3453 15.5879 34.2422 15.7899 35.163C16.0911 36.4481 16.1244 37.7814 15.8879 39.08V39.08ZM13.7309 29.688C13.0737 28.7675 12.3264 27.915 11.4999 27.143V27.143L11.4569 27.103L11.4379 27.085L11.3059 26.964L11.4379 26.843L11.4559 26.826L11.4999 26.785C12.2657 26.0757 12.9647 25.2974 13.5879 24.46H13.8719C14.4949 25.2976 15.1938 26.0759 15.9599 26.785V26.785L15.9979 26.82L16.0209 26.842L16.1539 26.963L16.0209 27.084L15.9999 27.108L15.9629 27.142C15.1355 27.9137 14.3878 28.7667 13.7309 29.688V29.688ZM8.22289 26.708L8.70289 25.558C8.86389 25.658 9.02489 25.75 9.17989 25.853C9.61368 26.1448 10.0325 26.4582 10.4349 26.792V26.792C10.5049 26.849 10.5749 26.905 10.6429 26.963C10.5869 27.01 10.5299 27.057 10.4729 27.103L10.4359 27.134C9.96589 27.517 9.56789 27.816 9.17989 28.073C8.54466 28.486 7.881 28.8536 7.19389 29.173L7.93989 27.383L8.22289 26.708ZM9.21689 24.325C9.84356 22.825 10.4679 21.325 11.0899 19.825L11.3319 19.243L11.3589 19.177C11.553 20.0112 11.8255 20.8251 12.1729 21.608C12.5416 22.3992 12.9765 23.1579 13.4729 23.876V23.881C13.4209 23.957 13.3729 24.033 13.3159 24.109C12.7068 24.9354 12.0226 25.7037 11.2719 26.404H10.6529C10.1999 26.036 9.80789 25.744 9.42389 25.488C9.24589 25.369 9.06189 25.258 8.87589 25.147L9.21689 24.325ZM11.9509 10.1L12.7779 12.084C12.3408 12.3974 11.9716 12.7961 11.6927 13.256C11.4138 13.7159 11.2308 14.2275 11.1549 14.76C10.9655 15.7491 10.9412 16.7628 11.0829 17.76C10.4742 16.2973 9.86523 14.8343 9.25589 13.371L10.4929 10.398L11.2849 8.49797L11.9509 10.1ZM15.0189 10.4L15.8109 8.49997L16.6039 10.4L17.8429 13.372L16.4619 16.681C16.485 16.0372 16.4333 15.3929 16.3079 14.761C16.2358 14.1697 16.0232 13.6043 15.6877 13.1121C15.3523 12.6199 14.9038 12.2153 14.3799 11.932L15.0189 10.4ZM16.1929 26.415C15.4424 25.7153 14.7591 24.947 14.1519 24.12V24.12C14.0969 24.045 14.0469 23.969 13.9949 23.892C14.4911 23.1734 14.9259 22.4144 15.2949 21.623C15.5661 21.0117 15.792 20.3813 15.9709 19.737L17.8889 24.337L18.3079 25.343C18.2199 25.396 18.1319 25.448 18.0479 25.505C17.6579 25.764 17.2659 26.056 16.8179 26.421L16.1929 26.415ZM15.9399 17.939L15.8129 18.239L14.8799 16C14.5159 15.1213 14.1492 14.2426 13.7799 13.364L14.2179 12.313C14.6762 12.5725 15.0664 12.937 15.3563 13.3767C15.6463 13.8163 15.8278 14.3185 15.8859 14.842C16.08 15.8617 16.0979 16.9072 15.9389 17.933L15.9399 17.939ZM12.9399 12.484L13.3099 13.373L11.4999 17.71C11.3655 16.7575 11.3898 15.7894 11.5719 14.845C11.7101 13.9102 12.2002 13.0634 12.9419 12.478L12.9399 12.484ZM13.5449 13.937C14.2336 15.5896 14.9212 17.2416 15.6079 18.893L15.6979 19.11C15.5036 19.9093 15.2358 20.6889 14.8979 21.439C14.5642 22.1558 14.1739 22.845 13.7309 23.5C13.2888 22.8428 12.8996 22.1517 12.5669 21.433C12.1442 20.5027 11.8311 19.5265 11.6339 18.524L13.5449 13.937ZM13.7669 12.273L13.5449 12.807L13.3309 12.295C13.4762 12.2426 13.6307 12.2201 13.7849 12.229L13.7669 12.273ZM16.8159 26.973L17.0249 26.802C17.4273 26.4678 17.8465 26.1544 18.2809 25.863C18.3429 25.822 18.4059 25.784 18.4699 25.746L18.8749 26.719L19.1559 27.396L19.8129 28.976C19.2863 28.7077 18.7748 28.4106 18.2809 28.086C17.8859 27.823 17.4869 27.524 17.0229 27.147L16.9859 27.116L16.8159 26.973ZM23.4019 26.717L23.6839 27.395C24.1379 28.4823 24.5916 29.57 25.0449 30.658C23.4397 30.4278 21.8771 29.9632 20.4069 29.279L19.5529 27.228L19.2719 26.551L18.8409 25.516C19.5047 25.1113 20.1968 24.755 20.9119 24.45C21.3849 24.25 21.8209 24.085 22.2439 23.95L22.4059 24.34L23.4019 26.717ZM19.0129 16.168C20.0389 18.6226 21.0609 21.0763 22.0789 23.529C21.6549 23.671 21.2169 23.839 20.7449 24.041C20.0318 24.3479 19.3411 24.7044 18.6779 25.108L18.2779 24.156L16.1509 19.056C16.2339 18.7 16.2969 18.376 16.3429 18.072L18.0729 13.925L19.0129 16.168ZM23.8929 -0.0250313H23.9999L23.8409 0.0999687L23.8929 -0.0250313ZM20.3229 2.68997C21.2006 2.3183 22.045 1.87235 22.8469 1.35697L22.8419 1.36897L22.4079 2.40897C21.3246 5.01564 20.2392 7.62197 19.1519 10.228L18.0769 12.806L16.9999 10.228L16.7999 10.311L16.9999 10.227L16.0419 7.93597L17.8849 3.51897C18.7172 3.30416 19.5322 3.02704 20.3229 2.68997V2.68997ZM17.3659 3.64897L15.8119 7.37497L15.7949 7.41497V7.40997L14.6739 10.1L13.9529 11.833C13.6906 11.799 13.4241 11.8275 13.1749 11.916L13.1619 11.884L13.1509 11.889L12.4769 10.233L11.4849 7.85097L11.2849 7.37397C10.7569 6.1073 10.2282 4.8373 9.69889 3.56397V3.55797C12.2097 4.20654 14.8402 4.2381 17.3659 3.64997V3.64897ZM7.94789 10.228C7.42723 8.9773 6.90523 7.72597 6.38189 6.47397C5.81523 5.1193 5.24856 3.7643 4.68189 2.40897L4.09989 1.00997C4.21323 1.08997 4.32756 1.1683 4.44289 1.24497C5.29533 1.80832 6.1978 2.29203 7.13889 2.68997C7.79874 2.9718 8.47576 3.21162 9.16589 3.40797C9.76589 4.84864 10.3659 6.28897 10.9659 7.72897L11.0499 7.92897L10.0929 10.229L9.02089 12.805C8.70956 12.0576 8.39856 11.311 8.08789 10.565L7.94789 10.228ZM6.45689 20.081C7.00156 18.777 7.54556 17.473 8.08889 16.169C8.39956 15.4216 8.71056 14.675 9.02189 13.929C9.69856 15.553 10.3746 17.1773 11.0499 18.802L10.6919 19.664C10.0699 21.1613 9.44589 22.6613 8.81989 24.164L8.49489 24.942C7.91973 24.61 7.32572 24.3119 6.71589 24.049C6.17448 23.816 5.62141 23.611 5.05889 23.435C5.52356 22.313 5.98956 21.195 6.45689 20.081ZM3.41189 27.381L3.69289 26.704L4.68489 24.321L4.88489 23.83C5.44717 24.0027 5.99994 24.205 6.54089 24.436C7.15272 24.698 7.74844 24.9962 8.32489 25.329L7.82489 26.538L7.54289 27.215L6.60889 29.453C5.15075 30.0865 3.60889 30.5065 2.03089 30.7L3.41189 27.381ZM0.190893 35.12L1.84289 31.152C3.40102 30.9826 4.92799 30.5972 6.37989 30.007L6.17989 30.478C5.92589 31.09 5.67023 31.7023 5.41289 32.315L4.28489 35.034L3.61489 36.643C3.14823 37.759 2.68356 38.8756 2.22089 39.993C1.74689 38.8503 1.27156 37.709 0.794893 36.569L0.190893 35.12ZM0.190893 45.986L1.14489 43.7L2.11389 41.373C2.18887 41.5877 2.25066 41.8067 2.29889 42.029C2.40398 42.5517 2.45459 43.0838 2.44989 43.617V43.617C2.45046 44.4 2.36664 45.1809 2.19989 45.946C1.99568 46.867 1.69398 47.7638 1.29989 48.621L1.29389 48.634L0.190893 45.986ZM0.399893 51.06C0.706525 50.6059 0.98892 50.1359 1.24589 49.652L2.97089 53.794L2.89689 53.856C1.96089 53.022 1.12313 52.0839 0.399893 51.06V51.06ZM4.44289 52.676C4.08589 52.913 3.72389 53.176 3.31889 53.507L1.50889 49.16L1.53789 49.103C1.58989 49.003 1.63789 48.903 1.68789 48.803C2.09419 47.9177 2.4043 46.9914 2.61289 46.04C2.78809 45.2438 2.87693 44.4311 2.87789 43.616V43.616C2.87844 43.2655 2.85875 42.9152 2.81889 42.567L3.29489 43.7L4.28589 46.078L5.41689 48.795C5.66689 49.389 5.91489 49.983 6.16089 50.577L6.54489 51.5C5.81767 51.8406 5.11616 52.2337 4.44589 52.676H4.44289ZM13.7289 49.853C11.3879 49.868 9.07564 50.3696 6.93889 51.326L6.55689 50.407C6.30956 49.8123 6.06156 49.218 5.81289 48.624L4.68389 45.909L3.69289 43.531L2.45389 40.554C2.97523 39.304 3.49523 38.0556 4.01389 36.809L4.68289 35.2L5.81489 32.482C6.07289 31.87 6.32889 31.2573 6.58289 30.644L6.94089 29.783C7.80363 29.4033 8.63289 28.9517 9.41989 28.433C9.80189 28.178 10.1939 27.886 10.6489 27.517H11.2659C12.0821 28.2819 12.8192 29.1272 13.4659 30.04C12.9712 30.7584 12.5383 31.5174 12.1719 32.309C11.7679 33.1942 11.4599 34.1202 11.2529 35.071C10.9337 36.4157 10.8997 37.8123 11.1529 39.171C11.5299 40.942 12.5659 42.133 13.7309 42.133C14.8959 42.133 15.9309 40.943 16.3089 39.171C16.5621 37.8123 16.528 36.4157 16.2089 35.071C16.0006 34.1202 15.6925 33.1941 15.2899 32.308C14.9216 31.5165 14.4867 30.7578 13.9899 30.04C14.636 29.1267 15.3731 28.2814 16.1899 27.517H16.8079C17.2579 27.881 17.6509 28.173 18.0389 28.433C18.6886 28.8647 19.3676 29.2506 20.0709 29.588V29.588L22.4099 35.198L24.6439 40.552L23.4009 43.529L22.4089 45.907L20.2099 51.2C18.1604 50.3285 15.9589 49.8708 13.7319 49.853H13.7289ZM20.6059 51.359L22.8059 46.076L23.7999 43.7L24.8779 41.119L24.9329 41.252C24.8544 41.4771 24.79 41.7069 24.7399 41.94C24.6279 42.4918 24.574 43.0539 24.5789 43.617V43.617C24.5799 44.4321 24.6687 45.2448 24.8439 46.041C25.0494 46.9787 25.3534 47.8921 25.7509 48.766C25.1589 50.192 24.5642 51.6173 23.9669 53.042L23.8669 53.29C23.5669 53.061 23.2889 52.859 23.0179 52.68C22.2531 52.1738 21.4477 51.7319 20.6099 51.359H20.6059ZM24.5599 53.859C24.4466 53.7616 24.3316 53.6656 24.2149 53.571L24.3659 53.21C24.9139 51.8973 25.4612 50.5843 26.0079 49.271C26.3174 49.8904 26.6675 50.4887 27.0559 51.062C26.3341 52.0847 25.4981 53.0218 24.5639 53.855L24.5599 53.859Z" fill="white"/>
</g>
<defs>
<clipPath id="clip0">
<rect width="27" height="54" fill="white"/>
</clipPath>
</defs>
</svg>
