<svg width="26" height="26" viewBox="0 0 26 26" fill="none" xmlns="http://www.w3.org/2000/svg">
<path d="M13 23C18.5228 23 23 18.5228 23 13C23 7.47715 18.5228 3 13 3C7.47715 3 3 7.47715 3 13C3 18.5228 7.47715 23 13 23Z" fill="#FFE17D"/>
<path d="M14.4086 21.2991C9.04694 21.2991 4.70049 16.9526 4.70049 11.591C4.70049 9.2691 5.51663 7.13847 6.87631 5.4679C4.6892 7.24797 3.29123 9.96042 3.29123 13.0002C3.29123 18.3618 7.63768 22.7083 12.9993 22.7083C16.0391 22.7083 18.7516 21.3103 20.5316 19.1231C18.8611 20.4829 16.7304 21.2991 14.4086 21.2991Z" fill="#FFD164"/>
<path d="M10.1809 22.7084C10.5253 22.7084 10.8072 22.4265 10.8072 22.0821C10.8072 21.7376 10.5253 21.4558 10.1809 21.4558H10.494C10.8385 21.4558 11.1203 21.1739 11.1203 20.8294C11.1203 20.4849 10.8385 20.2031 10.494 20.2031H10.8072C11.1517 20.2031 11.4335 19.9213 11.4335 19.5768C11.4335 19.2323 11.1516 18.9505 10.8072 18.9505H14.252C14.5979 18.9505 14.8783 18.6701 14.8783 18.3242C14.8783 17.9783 14.5979 17.6978 14.252 17.6978H8.61502C8.09613 17.6978 7.67554 17.2772 7.67554 16.7584V14.8794C7.67554 14.5335 7.39511 14.2531 7.04922 14.2531C6.70332 14.2531 6.4229 14.5335 6.4229 14.8794V16.4124C6.4229 16.839 6.27768 17.253 6.01117 17.5862L5.71926 17.9511C5.36387 18.3953 5.17026 18.9472 5.17026 19.5161V20.8295C5.17026 21.8672 6.01152 22.7085 7.04926 22.7085H10.1809V22.7084Z" fill="#FFD164"/>
<path d="M8.83668 10.9945C8.31417 10.9462 7.94282 10.5889 8.00727 10.1966L8.10059 9.62825C8.165 9.2359 8.6408 8.95706 9.16332 9.00546C9.68583 9.05382 10.0572 9.41109 9.99273 9.80344L9.89941 10.3718C9.835 10.7641 9.3592 11.0429 8.83668 10.9945Z" fill="#7D5046"/>
<path d="M9.74501 11C9.83013 10.8876 9.89071 10.7553 9.90951 10.6066L9.99347 9.94092C10.0514 9.48141 9.71722 9.06289 9.2469 9.00625C9.18893 8.99926 9.13156 8.9983 9.07547 9.00253L9.00988 9.51458C8.94185 10.0536 9.22935 10.801 9.74501 11Z" fill="#9C6846"/>
<path d="M15.8367 10.9945C15.3142 10.9462 14.9428 10.5889 15.0073 10.1966L15.1006 9.62825C15.165 9.2359 15.6408 8.95706 16.1633 9.00546C16.6858 9.05382 17.0572 9.41109 16.9927 9.80343L16.8994 10.3718C16.835 10.7641 16.3592 11.0429 15.8367 10.9945Z" fill="#7D5046"/>
<path d="M16.745 11C16.8301 10.8876 16.8907 10.7553 16.9095 10.6066L16.9935 9.94092C17.0514 9.48137 16.7172 9.06289 16.2469 9.00625C16.1889 8.99926 16.1316 8.9983 16.0755 9.00253L16.0099 9.51458C15.9418 10.0536 16.2294 10.801 16.745 11Z" fill="#9C6846"/>
<path d="M7.00004 23H10.3333C10.7 23 11 22.7 11 22.3333C11 22.2115 10.9645 22.0986 10.9068 22H7C6.44861 22 6.00002 21.5514 6.00002 21V19.6021C6.00002 19.2251 6.12976 18.8553 6.36524 18.561L6.67599 18.1726C7.09988 17.6426 7.35408 16.977 7.35408 16.2985V14.0925C7.25569 14.0352 7.12209 14 7 14C6.63183 14 6.33335 14.2985 6.33335 14.6667V16.2985C6.33335 16.7526 6.17883 17.1932 5.89511 17.5479L5.58436 17.9362C5.20608 18.4091 5 18.9966 5 19.6021V21C5.00004 22.1046 5.89548 23 7.00004 23Z" fill="#FFC350"/>
<path d="M3.6858 11.7552C3.9733 9.69947 4.91238 7.83491 6.40156 6.36316C8.13564 4.64937 10.4399 3.66586 12.8898 3.59382C15.3292 3.52189 17.6781 4.3575 19.5047 5.94626C19.6283 6.05384 19.8168 6.04201 19.9256 5.91973C20.0345 5.79753 20.0225 5.61127 19.8988 5.50369C17.9584 3.81585 15.463 2.92867 12.8721 3.00449C10.2695 3.08105 7.82174 4.1258 5.97972 5.9463C4.39788 7.50963 3.4003 9.49041 3.09487 11.6746C2.79942 13.7873 3.19934 15.9789 4.22102 17.8454C4.27499 17.944 4.37764 18 4.48366 18C4.53159 18 4.58019 17.9886 4.62532 17.9644C4.77024 17.887 4.82413 17.7081 4.74575 17.5649C3.78404 15.8079 3.40757 13.7446 3.6858 11.7552Z" fill="black"/>
<path d="M20.5286 6.10119C20.4224 5.97756 20.2385 5.96555 20.1179 6.07435C19.9973 6.18319 19.9855 6.37164 20.0917 6.49528C21.6599 8.32159 22.4846 10.6705 22.4138 13.1095C22.3427 15.5593 21.3719 17.8633 19.6802 19.5973C18.5381 20.7679 17.1166 21.6184 15.5696 22.0566C14.1397 22.4616 12.6236 22.5117 11.1703 22.2042C11.177 22.1585 11.1806 22.1117 11.1806 22.0641C11.1806 21.8904 11.1342 21.7276 11.0534 21.588C11.316 21.4235 11.4916 21.1268 11.4916 20.7889C11.4916 20.6151 11.4452 20.4523 11.3644 20.3127C11.627 20.1482 11.8026 19.8515 11.8026 19.5136C11.8026 19.394 11.7806 19.2795 11.7405 19.1743H14.311C14.8144 19.1743 15.224 18.7544 15.224 18.2384C15.224 17.7224 14.8144 17.3025 14.311 17.3025H8.71234C8.35828 17.3025 8.07022 17.0073 8.07022 16.6444V14.7315C8.07022 14.2155 7.6606 13.7957 7.15717 13.7957C6.65375 13.7957 6.24413 14.2155 6.24413 14.7315V16.2922C6.24413 16.6574 6.12153 17.0156 5.89896 17.3008L5.60903 17.6723C5.21629 18.1755 5 18.8075 5 19.4519V20.7889C5 22.0081 5.96771 23 7.15717 23H10.2675C10.5062 23 10.7237 22.9056 10.8865 22.7513C11.604 22.9164 12.3369 22.9994 13.0699 22.9994C13.9649 22.9994 14.8598 22.8766 15.7246 22.6316C17.3685 22.1659 18.8786 21.2626 20.0917 20.0191C21.8887 18.1772 22.92 15.7297 22.9955 13.1274C23.0707 10.5366 22.1946 8.04139 20.5286 6.10119ZM10.2675 22.4034H7.15714C6.28855 22.4034 5.58191 21.6791 5.58191 20.7888V19.4518C5.58191 18.9423 5.75293 18.4427 6.06342 18.0448L6.35335 17.6734C6.65817 17.2828 6.82608 16.7923 6.82608 16.2921V14.7315C6.82608 14.5443 6.97464 14.3921 7.15717 14.3921C7.33971 14.3921 7.48827 14.5444 7.48827 14.7315V16.6443C7.48827 17.3361 8.03739 17.899 8.71234 17.899H14.311C14.4936 17.899 14.6421 18.0512 14.6421 18.2383C14.6421 18.4254 14.4935 18.5777 14.311 18.5777H10.8896C10.7289 18.5777 10.5986 18.7112 10.5986 18.8759C10.5986 19.0407 10.7289 19.1742 10.8896 19.1742C11.0721 19.1742 11.2207 19.3265 11.2207 19.5136C11.2207 19.7007 11.0721 19.8529 10.8896 19.8529H10.5785C10.4178 19.8529 10.2876 19.9865 10.2876 20.1512C10.2876 20.3159 10.4178 20.4494 10.5785 20.4494C10.7611 20.4494 10.9096 20.6016 10.9096 20.7888C10.9096 20.9759 10.7611 21.1282 10.5785 21.1282H10.2675C10.1068 21.1282 9.97653 21.2617 9.97653 21.4264C9.97653 21.5911 10.1068 21.7247 10.2675 21.7247C10.4501 21.7247 10.5986 21.8769 10.5986 22.064C10.5986 22.2511 10.4501 22.4034 10.2675 22.4034Z" fill="black"/>
<path d="M8.88457 11.9943C8.91733 11.9981 8.95002 12 8.98252 12C9.20855 12 9.42582 11.9082 9.60286 11.7359C9.80535 11.5388 9.93101 11.26 9.95671 10.9509L9.99869 10.4455C10.0132 10.2714 9.9059 10.1164 9.7591 10.0993C9.6124 10.0825 9.48162 10.2093 9.46716 10.3834L9.42518 10.8888C9.41347 11.0296 9.35625 11.1565 9.26406 11.2463C9.17184 11.336 9.05562 11.3779 8.93695 11.3639C8.69191 11.3353 8.51216 11.0755 8.53631 10.7849L8.59228 10.1111C8.61642 9.82045 8.83579 9.60712 9.08051 9.63596C9.22778 9.65319 9.35799 9.52592 9.37245 9.35181C9.38691 9.17771 9.27966 9.02274 9.13285 9.00559C8.59466 8.94314 8.11377 9.41081 8.06075 10.049L8.00477 10.7228C7.95176 11.361 8.34645 11.9314 8.88457 11.9943Z" fill="black"/>
<path d="M15.8846 11.9943C15.9174 11.9981 15.9501 12 15.9826 12C16.2086 12 16.4258 11.9082 16.6029 11.7359C16.8054 11.5389 16.931 11.2601 16.9567 10.9509L16.9987 10.4456C17.0132 10.2715 16.9059 10.1165 16.7591 10.0994C16.6122 10.0823 16.4816 10.2094 16.4672 10.3835L16.4252 10.8888C16.4011 11.1794 16.1821 11.3925 15.937 11.364C15.6919 11.3353 15.5122 11.0756 15.5363 10.785L15.5923 10.1112C15.604 9.97041 15.6612 9.84344 15.7535 9.75371C15.8456 9.66398 15.9618 9.62197 16.0805 9.63607C16.2273 9.65309 16.358 9.52603 16.3725 9.35194C16.3869 9.17789 16.2797 9.02288 16.1329 9.00573C15.8721 8.97525 15.6171 9.06704 15.4146 9.26411C15.2122 9.46117 15.0865 9.73994 15.0608 10.0491L15.0048 10.7229C14.9792 11.032 15.0565 11.3345 15.2227 11.5747C15.3889 11.8148 15.6239 11.9638 15.8846 11.9943Z" fill="black"/>
<path d="M10.2703 14.6657C12.5339 14.728 14.5784 15.9519 14.5987 15.9642C14.6386 15.9885 14.6812 16 14.7231 16C14.8242 16 14.9216 15.9331 14.9703 15.817C15.0391 15.653 14.9843 15.4527 14.848 15.3699C14.7604 15.3167 12.6751 14.0659 10.2829 14.0001C10.1308 13.9965 10.0035 14.1414 10.0001 14.3253C9.99654 14.5091 10.1175 14.6615 10.2703 14.6657Z" fill="black"/>
<path d="M10.5281 7.94899C10.5816 7.98331 10.6455 8 10.7091 8C10.7944 8 10.8789 7.96992 10.9363 7.91217C11.0366 7.81126 11.0162 7.664 10.8909 7.58325C10.8215 7.53857 9.1687 6.49845 7.16078 7.30652C7.01716 7.36431 6.95894 7.50487 7.03077 7.62047C7.1026 7.73607 7.27715 7.78293 7.42081 7.72512C9.08787 7.05429 10.4673 7.91036 10.5281 7.94899Z" fill="black"/>
<path d="M17.9954 8.19429C17.9698 8.06341 17.8452 7.97864 17.7172 8.00471L15.1901 8.52133C15.0621 8.5475 14.979 8.67483 15.0046 8.80568C15.0271 8.92054 15.1258 9 15.2362 9C15.2516 9 15.2672 8.99845 15.2828 8.99526L17.8099 8.47864C17.9379 8.45248 18.021 8.32517 17.9954 8.19429Z" fill="black"/>
</svg>
