<svg width="70" height="70" viewBox="0 0 70 70" fill="none" xmlns="http://www.w3.org/2000/svg">
<path d="M68.6328 35C68.6328 35.4093 53.5728 56.875 35 56.875C16.4272 56.875 1.36719 35.2722 1.36719 35C1.36719 34.5911 16.4272 13.125 35 13.125C53.5728 13.125 68.6328 34.7278 68.6328 35Z" fill="white"/>
<path d="M38.3694 18.1039C30.4687 19.6705 24.5123 26.6392 24.5123 35C24.5123 43.3607 30.4687 50.3294 38.3694 51.8961C46.2701 50.3294 52.2265 43.3607 52.2265 35C52.2265 26.6392 46.2701 19.6705 38.3694 18.1039Z" fill="#A9AF4C"/>
<path d="M35 53.5938C24.7473 53.5938 16.4062 45.2525 16.4062 35C16.4062 32.0496 17.1151 29.1122 18.4561 26.5053C18.8014 25.8338 19.626 25.5693 20.2973 25.9149C20.9687 26.2603 21.2331 27.0847 20.8876 27.7561C19.7284 30.0095 19.1406 32.4466 19.1406 35C19.1406 43.7449 26.2552 50.8594 35 50.8594C43.7448 50.8594 50.8594 43.7449 50.8594 35C50.8594 26.2551 43.7448 19.1406 35 19.1406C32.7109 19.1406 30.503 19.6172 28.4375 20.5574C27.7502 20.8701 26.9396 20.5667 26.6268 19.8795C26.314 19.1923 26.6175 18.3816 27.3048 18.0688C29.7284 16.9656 32.3174 16.4062 35 16.4062C45.2527 16.4062 53.5938 24.7475 53.5938 35C53.5938 45.2525 45.2527 53.5938 35 53.5938Z" fill="#24281F"/>
<path d="M31.1719 33.3592C31.1719 30.15 32.4896 27.2498 34.6117 25.1659C29.3554 25.37 25.1562 29.6935 25.1562 34.9998C25.1562 40.4363 29.5634 44.8436 35 44.8436C36.2986 44.8436 37.5372 44.5897 38.6723 44.1328C34.2936 42.5131 31.1719 38.301 31.1719 33.3592Z" fill="white"/>
<path d="M44.8438 35C44.8438 33.4857 44.501 32.0518 43.8901 30.7702C43.4615 32.4328 41.9519 33.6613 40.1554 33.6613C38.0255 33.6613 36.2988 31.9346 36.2988 29.8047C36.2988 28.0189 37.5128 26.5173 39.1602 26.0784C37.8962 25.4879 36.4871 25.1562 35 25.1562C34.8697 25.1562 34.7408 25.161 34.6117 25.1661C32.4896 27.25 31.1719 30.1502 31.1719 33.3594C31.1719 38.3012 34.2936 42.5132 38.6723 44.1329C42.2893 42.6772 44.8438 39.1379 44.8438 35Z" fill="#24281F"/>
<path d="M35 58.2422C30.5441 58.2422 25.9325 57.0557 21.2938 54.7161C17.6176 52.8618 13.9215 50.2857 10.3082 47.0594C7.05578 44.1554 4.51473 41.2928 2.95586 39.4028C2.01168 38.258 1.34094 37.3673 0.94459 36.8216C0.123594 35.6918 0 35.4534 0 35C0 34.5676 0.110469 34.3044 0.938711 33.1469C1.32754 32.6036 1.99281 31.7105 2.95449 30.5411C4.50256 28.6584 7.03514 25.8025 10.3098 22.8877C16.0143 17.8105 24.9283 11.7578 35 11.7578C39.4559 11.7578 44.0675 12.9443 48.7062 15.2839C52.3824 17.1382 56.0785 19.7143 59.6918 22.9406C62.9442 25.8446 65.4853 28.7072 67.0441 30.5972C67.9883 31.742 68.6591 32.6327 69.0554 33.1784C69.8764 34.3082 70 34.5466 70 35C70 35.3788 70 35.678 68.1594 38.0625C67.2536 39.2358 65.7478 41.0819 63.7179 43.2131C63.197 43.7598 62.3317 43.7809 61.785 43.2603C61.2382 42.7394 61.2172 41.8741 61.7379 41.3273C64.3988 38.5336 66.2419 36.1244 67.0135 35.018C65.8514 33.3837 62.3792 28.9189 57.3954 24.5603C52.1436 19.9672 43.9951 14.4922 35 14.4922C26.0066 14.4922 17.8791 19.9212 12.6446 24.4755C7.55918 28.9002 4.11209 33.3766 2.98813 34.9843C4.15174 36.6204 7.62303 41.083 12.6046 45.4398C17.8564 50.0328 26.0049 55.5078 35 55.5078C41.3537 55.5078 47.9958 52.8704 54.7416 47.6686C55.3396 47.2075 56.1982 47.3185 56.6591 47.9165C57.1203 48.5145 57.0093 49.373 56.4113 49.834C49.176 55.4133 41.9721 58.2422 35 58.2422Z" fill="#24281F"/>
<path d="M35 46.2109C28.8183 46.2109 23.7891 41.1817 23.7891 35C23.7891 28.8183 28.8183 23.7891 35 23.7891C36.6859 23.7891 38.3082 24.1553 39.8219 24.8775C40.3409 25.1252 40.6495 25.6711 40.594 26.2433C40.5385 26.8157 40.1308 27.2922 39.5739 27.4355C38.4878 27.7149 37.7293 28.6951 37.7293 29.8189C37.7293 31.1758 38.8333 32.2798 40.1903 32.2798C41.3119 32.2798 42.2915 31.5231 42.5724 30.4393C42.7168 29.8828 43.194 29.476 43.7664 29.4216C44.3391 29.3671 44.8842 29.6769 45.1309 30.1961C45.8475 31.7054 46.2109 33.3216 46.2109 35.0001C46.2109 41.1817 41.1817 46.2109 35 46.2109ZM35 26.5234C30.326 26.5234 26.5234 30.326 26.5234 35C26.5234 39.674 30.326 43.4766 35 43.4766C39.674 43.4766 43.4766 39.674 43.4766 35C43.4766 34.6289 43.4532 34.262 43.4064 33.8998C42.5132 34.6034 41.3901 35.0141 40.1903 35.0141C37.3256 35.0141 34.9949 32.6834 34.9949 29.8188C34.9949 28.615 35.4077 27.4894 36.1143 26.5954C35.7476 26.5475 35.376 26.5234 35 26.5234Z" fill="#24281F"/>
<path d="M35 10.1172C34.2449 10.1172 33.6328 9.50496 33.6328 8.75V1.36719C33.6328 0.612227 34.2449 0 35 0C35.7551 0 36.3672 0.612227 36.3672 1.36719V8.75C36.3672 9.50496 35.7551 10.1172 35 10.1172Z" fill="#24281F"/>
<path d="M50.9803 12.8359C50.6304 12.8359 50.2805 12.7024 50.0135 12.4355C49.4796 11.9016 49.4795 11.0359 50.0135 10.5019L56.4915 4.02373C57.0254 3.48998 57.8911 3.48998 58.425 4.02373C58.9589 4.55761 58.9589 5.42332 58.425 5.95734L51.947 12.4355C51.6801 12.7024 51.3301 12.8359 50.9803 12.8359Z" fill="#24281F"/>
<path d="M19.0199 12.8362C18.6699 12.8362 18.3201 12.7027 18.0531 12.4358L11.575 5.95765C11.0411 5.42377 11.0411 4.55806 11.575 4.02404C12.1089 3.49029 12.9744 3.49043 13.5085 4.02404L19.9865 10.5022C20.5203 11.0361 20.5203 11.9018 19.9865 12.4358C19.7196 12.7027 19.3697 12.8362 19.0199 12.8362Z" fill="#24281F"/>
<path d="M35 70C34.2449 70 33.6328 69.3878 33.6328 68.6328V61.25C33.6328 60.495 34.2449 59.8828 35 59.8828C35.7551 59.8828 36.3672 60.495 36.3672 61.25V68.6328C36.3672 69.3878 35.7551 70 35 70Z" fill="#24281F"/>
<path d="M12.5417 66.3764C12.1919 66.3764 11.842 66.2429 11.575 65.976C11.0411 65.4421 11.0411 64.5764 11.575 64.0424L18.053 57.5643C18.5869 57.0305 19.4526 57.0305 19.9865 57.5643C20.5204 58.0981 20.5205 58.9638 19.9865 59.4979L13.5085 65.976C13.2416 66.2429 12.8916 66.3764 12.5417 66.3764Z" fill="#24281F"/>
<path d="M57.4584 66.3768C57.1084 66.3768 56.7586 66.2432 56.4916 65.9763L50.0136 59.4982C49.4797 58.9643 49.4797 58.0986 50.0136 57.5646C50.5475 57.0308 51.4131 57.031 51.9471 57.5646L58.4251 64.0427C58.959 64.5766 58.959 65.4423 58.4251 65.9763C58.1581 66.2432 57.8082 66.3768 57.4584 66.3768Z" fill="#24281F"/>
<path d="M23.1451 23.8683C22.7855 23.8683 22.4328 23.722 22.1785 23.4676C21.9242 23.2134 21.7779 22.8607 21.7779 22.5011C21.7779 22.1415 21.9242 21.7888 22.1785 21.5345C22.4328 21.2802 22.7855 21.1339 23.1451 21.1339C23.5047 21.1339 23.8574 21.2801 24.1117 21.5345C24.366 21.7889 24.5123 22.1415 24.5123 22.5011C24.5123 22.8607 24.366 23.2134 24.1117 23.4676C23.8574 23.722 23.5047 23.8683 23.1451 23.8683Z" fill="#24281F"/>
<path d="M59.3031 46.9883C58.9436 46.9883 58.5908 46.8421 58.3365 46.5877C58.0822 46.332 57.9359 45.9807 57.9359 45.6211C57.9359 45.2602 58.0822 44.9088 58.3365 44.6531C58.5908 44.399 58.9436 44.2539 59.3031 44.2539C59.6627 44.2539 60.0154 44.399 60.2697 44.6531C60.524 44.9074 60.6703 45.2602 60.6703 45.6211C60.6703 45.9807 60.524 46.332 60.2697 46.5877C60.0154 46.8421 59.6627 46.9883 59.3031 46.9883Z" fill="#24281F"/>
</svg>
