<svg width="70" height="70" viewBox="0 0 70 70" fill="none" xmlns="http://www.w3.org/2000/svg">
<path d="M68.6328 11.8945H14.7656V63.7109H68.6328V11.8945Z" fill="#A9AF4C"/>
<path d="M40.4688 63.7109H29.5312C29.5312 58.7836 29.5312 44.0113 29.5312 39.1016C30.8546 39.1016 39.1367 39.1016 40.4688 39.1016C40.4688 44.7472 40.4688 58.7584 40.4688 63.7109Z" fill="white"/>
<path d="M40.4688 63.7109H34.5898C34.5898 58.7836 34.5898 44.0113 34.5898 39.1016C35.3011 39.1016 39.7528 39.1016 40.4688 39.1016C40.4688 44.7472 40.4688 58.7584 40.4688 63.7109Z" fill="#FFE169"/>
<path d="M35.1367 21.2311C34.3828 21.2311 33.7695 20.6178 33.7695 19.8639C33.7695 19.11 34.3828 18.4967 35.1367 18.4967C35.6209 18.4967 36.1324 18.7438 36.6154 19.2113C37.1582 19.7365 38.0236 19.7223 38.5486 19.1795C39.0736 18.6368 39.0594 17.7713 38.5168 17.2463C37.8229 16.5748 37.1287 16.1952 36.5037 15.9878V14.3951C36.5037 13.64 35.8916 13.028 35.1365 13.028C34.3814 13.028 33.7694 13.64 33.7694 14.3951V15.9975C32.1781 16.5619 31.035 18.0815 31.035 19.8639C31.035 22.1255 32.8749 23.9655 35.1365 23.9655C35.8904 23.9655 36.5037 24.5788 36.5037 25.3326C36.5037 26.0865 35.8904 26.6998 35.1365 26.6998C34.5525 26.6998 33.9219 26.3325 33.3611 25.6656C32.8753 25.0875 32.0128 25.0129 31.4349 25.4989C30.8568 25.9848 30.7823 26.8472 31.2682 27.4251C31.9991 28.2945 32.8585 28.9003 33.7694 29.2057V30.8014C33.7694 31.5565 34.3814 32.1686 35.1365 32.1686C35.8916 32.1686 36.5037 31.5565 36.5037 30.8014V29.199C38.095 28.6347 39.2381 27.115 39.2381 25.3326C39.2382 23.071 37.3983 21.2311 35.1367 21.2311Z" fill="#24281F"/>
<path d="M68.6328 4.92188C63.2427 4.92188 3.40197 4.92188 1.36719 4.92188C0.61209 4.92188 0 5.53396 0 6.28906V14.4922C0 15.7743 0 62.2932 0 63.7109C0 64.466 0.61209 65.0781 1.36719 65.0781C3.96266 65.0781 65.8314 65.0781 68.6328 65.0781C69.3879 65.0781 70 64.466 70 63.7109C70 61.4355 70 9.85305 70 6.28906C70 5.53396 69.3879 4.92188 68.6328 4.92188ZM28.1641 40.4688V45.9375H2.73438V40.4688C4.07176 40.4688 26.8376 40.4688 28.1641 40.4688ZM2.73438 37.7344V32.4017C4.03881 32.665 5.23811 33.305 6.20088 34.2669C7.16352 35.2305 7.80363 36.4299 8.06709 37.7345H2.73438V37.7344ZM2.73438 48.6719H28.1641V54.1406H2.73438V48.6719ZM28.4037 33.5377C26.4858 30.661 25.4297 26.8104 25.4297 22.6953C25.4297 18.5802 26.4858 14.7297 28.4037 11.853C30.2079 9.14662 32.5504 7.65625 35 7.65625C37.4496 7.65625 39.7921 9.14662 41.5963 11.853C43.5142 14.7297 44.5703 18.5802 44.5703 22.6953C44.5703 26.8104 43.5142 30.661 41.5963 33.5377C39.7921 36.244 37.4496 37.7344 35 37.7344C32.5504 37.7344 30.2079 36.244 28.4037 33.5377ZM41.8359 48.6719H45.9375C46.6926 48.6719 47.3047 48.0598 47.3047 47.3047C47.3047 46.5496 46.6926 45.9375 45.9375 45.9375H41.8359V40.4688C43.1631 40.4688 65.9289 40.4688 67.2656 40.4688V45.9375H56.875C56.1199 45.9375 55.5078 46.5496 55.5078 47.3047C55.5078 48.0598 56.1199 48.6719 56.875 48.6719H67.2656V54.1406H41.8359V48.6719ZM67.2656 37.7344H61.9341C62.4792 35.06 64.5913 32.9481 67.2656 32.4029V37.7344ZM67.2656 7.65625V12.9877C64.5913 12.4425 62.4794 10.3306 61.9341 7.65625H67.2656ZM59.1618 7.65625C59.7632 11.8411 63.0809 15.1587 67.2656 15.7601V29.6304C63.0808 30.2318 59.7632 33.5495 59.1618 37.7342H41.6004C42.4195 36.9843 43.1818 36.0888 43.8714 35.0543C45.8668 32.0611 47.0508 28.1991 47.2659 24.0624H51.4062C52.1613 24.0624 52.7734 23.4503 52.7734 22.6952C52.7734 21.9401 52.1613 21.328 51.4062 21.328H47.2659C47.0509 17.1912 45.8668 13.3293 43.8714 10.3361C43.1818 9.30152 42.4193 8.40602 41.6004 7.65611H59.1618V7.65625ZM10.84 7.64258H28.3996C27.5805 8.39248 26.8182 9.30166 26.1286 10.3362C24.1332 13.3294 22.9492 17.1914 22.7341 21.3281H18.5938C17.8387 21.3281 17.2266 21.9402 17.2266 22.6953C17.2266 23.4504 17.8387 24.0625 18.5938 24.0625H22.7341C22.9491 28.1993 24.1332 32.0612 26.1286 35.0544C26.8182 36.089 27.5807 36.9845 28.3996 37.7344H10.84C10.5503 35.6975 9.6157 33.816 8.13449 32.3333C6.6526 30.8528 4.77121 29.9184 2.73438 29.6287V15.7619C4.77121 15.4722 6.65273 14.5376 8.13545 13.0562C9.61584 11.5743 10.5503 9.67928 10.84 7.64258ZM2.73438 7.64258H8.06709C7.80377 8.94701 7.16379 10.16 6.20184 11.1228C5.23838 12.0854 4.03895 12.7256 2.73438 12.989V7.64258ZM2.73438 56.875H28.1641V62.3438H2.73438V56.875ZM30.8984 40.4688H39.1016V62.3438H30.8984V40.4688ZM41.8359 62.3438V56.875H67.2656V62.3438H41.8359Z" fill="#24281F"/>
<path d="M51.4062 45.9375C52.1609 45.9375 52.7734 46.55 52.7734 47.3047C52.7734 48.0594 52.1609 48.6719 51.4062 48.6719C50.6516 48.6719 50.0391 48.0594 50.0391 47.3047C50.0391 46.55 50.6516 45.9375 51.4062 45.9375Z" fill="#24281F"/>
</svg>
