<svg width="50" height="50" viewBox="0 0 50 50" fill="none" xmlns="http://www.w3.org/2000/svg">
<g clip-path="url(#clip0)">
<path d="M37.9751 40.131V47.1427C37.9751 48.3165 37.0672 49.2677 35.9476 49.2677H31.0183C30.1923 49.2677 29.4485 48.7433 29.139 47.9405L28.6971 46.7989L26.1187 40.131H37.9751Z" fill="#FFCBBE"/>
<path d="M23.6224 40.131L21.044 46.7989L20.6022 47.9405C20.2927 48.7433 19.5488 49.2677 18.7229 49.2677H13.7935C12.674 49.2677 11.766 48.3165 11.766 47.1427V40.131H23.6224Z" fill="#FFCBBE"/>
<path d="M16.6178 49.2682H13.7933C12.6737 49.2682 11.7658 48.317 11.7658 47.1432V40.1316H14.5894V47.1432C14.5894 48.317 15.4973 49.2682 16.6178 49.2682Z" fill="#EAAC9D"/>
<path d="M11.7662 40.131H23.6225L21.0441 46.7989C20.0523 46.7764 19.0595 46.7442 18.0667 46.7032C15.7223 46.6065 13.555 45.7852 11.7661 44.4463V40.131H11.7662Z" fill="#EAAC9D"/>
<path d="M37.9751 40.131V44.4465C36.1863 45.7853 34.019 46.6066 31.6745 46.7033C30.6818 46.7443 29.689 46.7766 28.6972 46.799L26.1187 40.1311H37.9751V40.131Z" fill="#EAAC9D"/>
<path d="M33.3244 49.2676H31.0182C30.1923 49.2676 29.4484 48.7432 29.1389 47.9405L28.6971 46.7989L26.1187 40.131H28.4249L31.0033 46.7989L31.4451 47.9405C31.7547 48.7432 32.4985 49.2676 33.3244 49.2676Z" fill="#EAAC9D"/>
<path d="M42.9362 28.947C42.9297 30.49 42.8967 32.034 42.8392 33.577C42.5996 39.9206 37.7297 45.0048 31.6744 45.2535C27.1388 45.4409 22.6021 45.4409 18.0665 45.2535C12.0113 45.0047 7.14127 39.9206 6.9017 33.577C6.84418 32.034 6.81118 30.49 6.80475 28.947C6.76318 19.5822 13.731 11.8819 22.5531 11.3252V14.6576C22.5531 15.423 23.1452 16.0444 23.8758 16.0444H25.8651C26.5957 16.0444 27.1878 15.423 27.1878 14.6576V11.3252C36.0098 11.8819 42.9776 19.5822 42.9362 28.947Z" fill="#FFCBBE"/>
<path d="M20.7981 11.5338C16.9292 14.3352 14.2104 21.1095 14.2306 28.9872C14.2338 30.6339 14.2551 32.2795 14.2913 33.9262C14.4042 39.0013 16.1539 43.3211 18.6277 45.2758C18.4403 45.269 18.2539 45.2612 18.0665 45.2535C12.0122 45.0047 7.1412 39.9207 6.90154 33.5771C6.84402 32.0341 6.81102 30.49 6.80459 28.947C6.76637 20.2125 12.8249 12.9261 20.7981 11.5338Z" fill="#EAAC9D"/>
<path d="M9.34684 30.3406C9.34684 30.3406 7.03261 26.6563 6.70327 20.5725C6.61443 18.9322 7.96796 17.6149 9.52255 17.8313C11.7944 18.1476 15.1814 19.0556 18.7105 21.5623C18.7105 21.5623 14.0109 21.1099 14.0109 26.4857" fill="#EAAC9D"/>
<path d="M40.3942 30.3406C40.3942 30.3406 42.7084 26.6563 43.0378 20.5725C43.1266 18.9322 41.7731 17.6149 40.2185 17.8313C37.9466 18.1476 34.5596 19.0556 31.0305 21.5623" fill="#FFCBBE"/>
<path d="M27.2692 29.5613C25.6701 29.5064 24.071 29.5064 22.4719 29.5613C20.1328 29.6417 18.2719 31.6282 18.2134 34.0793C18.1987 34.6978 18.1987 35.3162 18.2134 35.9347C18.2719 38.3858 20.1328 40.3723 22.4719 40.4527C24.0709 40.5076 25.67 40.5076 27.2692 40.4527C29.6083 40.3723 31.4692 38.3858 31.5276 35.9347C31.5424 35.3162 31.5424 34.6978 31.5276 34.0793C31.4693 31.6282 29.6084 29.6417 27.2692 29.5613Z" fill="#FFDDCE"/>
<path d="M17.0162 15.212C20.8329 15.212 23.9268 11.9706 23.9268 7.97225C23.9268 3.97387 20.8329 0.732544 17.0162 0.732544C13.1996 0.732544 10.1056 3.97387 10.1056 7.97225C10.1056 11.9706 13.1996 15.212 17.0162 15.212Z" fill="#FEB756"/>
<path d="M42.7186 17.9672C42.0188 17.2874 41.0743 16.9728 40.1264 17.1051C39.9613 17.1281 39.7894 17.1546 39.6122 17.1842C36.5303 13.2936 32.0413 10.8987 27.23 10.5952C27.0362 10.583 26.849 10.6548 26.7086 10.7931C26.5683 10.9314 26.4888 11.1244 26.4888 11.3263V14.6573C26.4888 15.0181 26.2091 15.3116 25.8652 15.3116H23.8759C23.532 15.3116 23.2523 15.0181 23.2523 14.6573V12.5331C24.117 11.2395 24.6263 9.66726 24.6263 7.97174C24.6263 3.5761 21.2124 0 17.016 0C12.8202 0 9.40661 3.5761 9.40661 7.97174C9.40661 8.37057 9.43466 8.76745 9.48994 9.15134C9.54746 9.55134 9.90318 9.82635 10.2856 9.76629C10.6674 9.70594 10.9302 9.33279 10.8726 8.93279C10.8277 8.62106 10.8049 8.29772 10.8049 7.97174C10.8049 4.38382 13.5912 1.46486 17.016 1.46486C20.4413 1.46486 23.228 4.38382 23.228 7.97174C23.228 11.5602 20.4413 14.4796 17.016 14.4796C14.8374 14.4796 12.856 13.3161 11.7161 11.3674C11.5143 11.0225 11.084 10.9141 10.7547 11.1256C10.4256 11.3369 10.3222 11.7879 10.5239 12.1327C11.0948 13.1085 11.838 13.9234 12.6996 14.5459C11.7603 15.33 10.9003 16.2134 10.1312 17.1845C9.95324 17.1547 9.7805 17.1281 9.61467 17.105C8.6672 16.973 7.72225 17.2873 7.02246 17.9671C6.32174 18.6477 5.95101 19.6124 6.00517 20.6137C6.08804 22.1443 6.292 23.5255 6.5532 24.7415C6.25099 26.1159 6.09942 27.5305 6.10575 28.9496C6.11219 30.4844 6.145 32.051 6.20326 33.6063C6.32603 36.8579 7.60675 39.9166 9.80949 42.219C10.2061 42.6336 10.6265 43.0165 11.0669 43.367V47.1426C11.0669 48.7182 12.29 50 13.7935 50H18.7229C19.8402 50 20.8323 49.2992 21.2501 48.2155L22.0681 46.1002C23.0015 46.1159 23.9359 46.1258 24.8705 46.1258C25.8051 46.1258 26.7394 46.1159 27.673 46.1002L28.4908 48.2148C28.9088 49.2993 29.9009 50.0001 31.0182 50.0001H35.9476C37.4511 50.0001 38.6742 48.7183 38.6742 47.1427V43.3707C39.2737 42.8918 39.8364 42.3524 40.3544 41.7541C40.6139 41.4546 40.5924 40.9913 40.3063 40.7196C40.0203 40.4477 39.5781 40.4702 39.3188 40.77C37.329 43.0676 34.6046 44.4 31.6468 44.5214C27.1506 44.7074 22.5907 44.7074 18.0938 44.5214C15.3402 44.4082 12.7488 43.2222 10.7969 41.1821C8.84441 39.1412 7.70911 36.4302 7.60032 33.5487C7.54271 32.0106 7.51027 30.4612 7.50393 28.943C7.50263 28.655 7.5098 28.3673 7.52248 28.0801C8.13903 29.7328 8.71455 30.6665 8.76266 30.743C8.89689 30.9567 9.11949 31.0726 9.34676 31.0726C9.47829 31.0726 9.6115 31.0337 9.7297 30.9525C10.0522 30.7309 10.1424 30.2771 9.93142 29.9389C9.90933 29.9035 7.71479 26.3227 7.40111 20.531C7.37063 19.9671 7.57897 19.4243 7.973 19.0416C8.36629 18.6596 8.89736 18.4831 9.43028 18.5574C11.5887 18.8579 14.8827 19.7283 18.3181 22.1685C18.6375 22.3956 19.0723 22.3081 19.2891 21.9733C19.5058 21.6386 19.4224 21.1831 19.1028 20.956C16.4212 19.0511 13.8164 18.0439 11.7073 17.5146C12.4142 16.7033 13.1953 15.9681 14.0387 15.3155C14.9625 15.7249 15.9705 15.9445 17.016 15.9445C18.8518 15.9445 20.538 15.2599 21.8539 14.1217V14.6573C21.8539 15.8258 22.7609 16.7765 23.8758 16.7765H25.8651C26.98 16.7765 27.887 15.8258 27.887 14.6573V12.1224C31.777 12.5596 35.3906 14.4843 38.0331 17.5147C35.9242 18.044 33.3196 19.0513 30.6381 20.956C30.3185 21.1831 30.2352 21.6385 30.4518 21.9733C30.6686 22.3081 31.1034 22.3956 31.4228 22.1685C34.8582 19.7283 38.1522 18.8579 40.3106 18.5574C40.8436 18.4832 41.3748 18.6597 41.7679 19.0416C42.1619 19.4242 42.3703 19.9672 42.3398 20.5309C42.0262 26.3227 39.8317 29.9035 39.8095 29.9389C39.5981 30.2767 39.6876 30.7302 40.0098 30.9523C40.1283 31.0339 40.2616 31.073 40.3935 31.073C40.6208 31.073 40.8438 30.957 40.9782 30.7431C41.0263 30.6667 41.6017 29.733 42.2183 28.0803C42.231 28.3676 42.2382 28.6553 42.2369 28.9435C42.2305 30.4613 42.1981 32.0108 42.1405 33.5489C42.0745 35.3097 41.6358 36.9857 40.8365 38.5303C40.6525 38.886 40.7785 39.3305 41.118 39.5233C41.2239 39.5834 41.338 39.6119 41.4505 39.6119C41.6987 39.6119 41.9391 39.4732 42.0658 39.2284C42.9681 37.4849 43.4633 35.5933 43.5377 33.6063C43.596 32.0513 43.6288 30.4847 43.6352 28.9502C43.6416 27.5307 43.49 26.1162 43.1878 24.7418C43.449 23.5259 43.653 22.1446 43.7358 20.614C43.7901 19.6125 43.4193 18.6479 42.7186 17.9672ZM31.7019 45.9851C33.6939 45.9033 35.5919 45.3341 37.2759 44.3373V47.1426C37.2759 47.9104 36.68 48.5352 35.9476 48.5352H31.0182C30.4739 48.5352 29.9908 48.194 29.787 47.6654L29.1692 46.068C30.0151 46.0462 30.8599 46.02 31.7019 45.9851ZM20.5719 46.068L19.9539 47.6662C19.7503 48.194 19.2672 48.5352 18.7229 48.5352H13.7935C13.0611 48.5352 12.4652 47.9104 12.4652 47.1426V44.3305C14.1562 45.3304 16.0602 45.9037 18.039 45.9851C18.8813 46.02 19.7261 46.0462 20.5719 46.068Z" fill="#24281F"/>
<path d="M38.9017 25.9584C39.0202 26.04 39.1535 26.0791 39.2854 26.0791C39.5126 26.0791 39.7357 25.9631 39.87 25.7492C39.9044 25.6944 40.7137 24.3837 40.8283 22.2682C40.8535 21.7995 40.6799 21.3479 40.3519 21.0292C40.0239 20.7107 39.5813 20.5633 39.1377 20.6252C38.3498 20.735 37.1491 21.0516 35.903 21.9367C35.5833 22.1638 35.5 22.6191 35.7166 22.954C35.9334 23.2888 36.3682 23.3763 36.6877 23.1492C37.7079 22.4245 38.6834 22.1663 39.3219 22.0773C39.3524 22.0734 39.379 22.0818 39.4012 22.1034C39.4237 22.1252 39.4342 22.1527 39.4324 22.1853C39.3409 23.8752 38.7138 24.9245 38.7002 24.9471C38.4902 25.2846 38.5801 25.7367 38.9017 25.9584Z" fill="#24281F"/>
<path d="M10.4191 22.0772C11.0578 22.1662 12.0331 22.4243 13.0535 23.1491C13.3729 23.3761 13.8077 23.2886 14.0245 22.9539C14.2411 22.6191 14.1578 22.1636 13.8382 21.9366C12.592 21.0514 11.3913 20.7348 10.6033 20.6251C10.1592 20.5632 9.71702 20.7105 9.38927 21.0291C9.06114 21.3478 8.88748 21.7994 8.91283 22.2681C9.0274 24.3836 9.83671 25.6943 9.87111 25.7491C10.0054 25.963 10.2284 26.079 10.4558 26.079C10.5877 26.079 10.7211 26.0399 10.8394 25.9583C11.162 25.7359 11.2514 25.2818 11.0392 24.9438C11.0329 24.9337 10.4008 23.884 10.3089 22.1851C10.307 22.1525 10.3175 22.1249 10.34 22.1031C10.362 22.0818 10.3889 22.0731 10.4191 22.0772Z" fill="#24281F"/>
<path d="M27.2922 28.8292C25.6853 28.774 24.0559 28.774 22.449 28.8292C19.7498 28.922 17.5824 31.22 17.5145 34.061C17.4996 34.6887 17.4996 35.3254 17.5145 35.9531C17.5824 38.794 19.7498 41.0921 22.449 41.1849C23.2525 41.2125 24.0615 41.2263 24.8706 41.2263C25.6798 41.2263 26.4887 41.2125 27.2922 41.1849C29.9915 41.0921 32.1589 38.7941 32.2267 35.9531C32.2417 35.3254 32.2417 34.6888 32.2267 34.061C32.1588 31.2201 29.9914 28.922 27.2922 28.8292ZM30.8287 35.9165C30.7794 37.9824 29.2058 39.6535 27.2462 39.7208C25.6699 39.775 24.0711 39.775 22.4948 39.7208C20.5352 39.6535 18.9616 37.9825 18.9123 35.9165C18.898 35.3131 18.898 34.7011 18.9123 34.0976C18.9615 32.0317 20.5351 30.3606 22.4948 30.2933C23.2829 30.2662 24.0768 30.2527 24.8704 30.2527C25.6641 30.2527 26.4579 30.2662 27.2461 30.2933C29.2056 30.3606 30.7793 32.0316 30.8286 34.0976C30.843 34.701 30.843 35.3131 30.8287 35.9165Z" fill="#24281F"/>
<path d="M23.1141 33.5714C22.7279 33.5714 22.4149 33.8993 22.4149 34.3038V35.8608C22.4149 36.2653 22.7279 36.5932 23.1141 36.5932C23.5003 36.5932 23.8132 36.2653 23.8132 35.8608V34.3038C23.8132 33.8993 23.5003 33.5714 23.1141 33.5714Z" fill="#24281F"/>
<path d="M26.6272 33.5714C26.241 33.5714 25.928 33.8993 25.928 34.3038V35.8608C25.928 36.2653 26.241 36.5932 26.6272 36.5932C27.0134 36.5932 27.3263 36.2653 27.3263 35.8608V34.3038C27.3263 33.8993 27.0133 33.5714 26.6272 33.5714Z" fill="#24281F"/>
<path d="M15.186 33.9252C15.8405 33.9252 16.3729 32.9992 16.3729 31.8611C16.3729 30.7229 15.8404 29.797 15.186 29.797C14.5316 29.797 13.9993 30.7229 13.9993 31.8611C13.9993 32.9992 14.5316 33.9252 15.186 33.9252Z" fill="#24281F"/>
<path d="M34.5552 29.797C33.9007 29.797 33.3683 30.7229 33.3683 31.8611C33.3683 32.9992 33.9008 33.9252 34.5552 33.9252C35.2096 33.9252 35.7419 32.9992 35.7419 31.8611C35.7419 30.7229 35.2096 29.797 34.5552 29.797Z" fill="#24281F"/>
<path d="M16.9535 11.2181C16.0083 11.2234 15.6351 11.1873 14.8353 10.7359C14.4954 10.5439 14.0714 10.6771 13.8883 11.0332C13.7051 11.3894 13.8321 11.8335 14.1721 12.0254C14.9875 12.4857 15.5491 12.6299 16.2583 12.6696V13.1211C16.2583 13.5256 16.5712 13.8536 16.9574 13.8536C17.3436 13.8536 17.6566 13.5256 17.6566 13.1211V12.6171C19.1474 12.3365 20.0553 11.1994 20.2049 10.0783C20.3791 8.77309 19.5811 7.6521 18.1721 7.22241C17.2817 6.95083 16.2948 6.62124 15.7248 6.23559C15.4592 6.05591 15.4613 5.76733 15.4861 5.61138C15.5383 5.28374 15.7951 4.8813 16.3599 4.73452C16.5879 4.67524 16.8007 4.64692 16.9971 4.6396C17.0024 4.63931 17.0078 4.63921 17.0131 4.63872C17.8756 4.61167 18.4087 4.99888 18.4456 5.02651C18.7527 5.26606 19.1876 5.2021 19.4198 4.88198C19.6533 4.55991 19.5933 4.10044 19.2859 3.85571C19.2493 3.82661 18.6435 3.3563 17.6565 3.21401V2.82251C17.6565 2.41802 17.3435 2.09009 16.9573 2.09009C16.5711 2.09009 16.2582 2.41802 16.2582 2.82251V3.25903C16.1808 3.27476 16.1028 3.29194 16.0232 3.31265C15.0163 3.57436 14.2641 4.38208 14.1068 5.37036C13.9726 6.21343 14.3019 7.01645 14.966 7.46587C15.5472 7.85923 16.3629 8.19624 17.781 8.62876C18.5171 8.85317 18.8957 9.30757 18.82 9.87534C18.7047 10.7414 17.7722 11.2135 16.9535 11.2181Z" fill="#24281F"/>
</g>
<defs>
<clipPath id="clip0">
<rect width="50" height="50" fill="white"/>
</clipPath>
</defs>
</svg>
