<svg width="116" height="95" viewBox="0 0 116 95" fill="none" xmlns="http://www.w3.org/2000/svg">
<path d="M90 90.9499L72.6245 73.5901L77.5878 71.9312L74.1388 68.4855L78.4341 67.0494L54 59L63.4806 87.5187L67.7571 74.8382L86.9374 94L90 90.9499Z" fill="white"/>
<path d="M100 3C91.8649 5.72224 86 13.4232 86 22.5C86 31.5768 91.8649 39.2778 100 42C108.135 39.2778 114 31.5768 114 22.5C114 13.4232 108.135 5.72224 100 3Z" fill="#A9AF4C"/>
<path d="M28.9996 3C20.8649 5.72224 15 13.4232 15 22.5C15 31.5768 20.8649 39.2778 28.9996 42C37.1351 39.2778 43 31.5768 43 22.5C43 13.4232 37.1351 5.72224 28.9996 3Z" fill="#FFE169"/>
<path d="M94.5679 86.1613L77.2479 68.8061L87.6078 65.3334C88.2125 65.1305 88.6196 64.5643 88.6185 63.927C88.6167 63.2898 88.2072 62.7248 87.6014 62.5247L52.9482 51.075C52.4165 50.8992 51.8304 51.038 51.4342 51.4335C51.038 51.8291 50.899 52.4137 51.0751 52.9452L62.543 87.544C62.7434 88.1489 63.3087 88.5572 63.9469 88.5589H63.9504C64.5869 88.5589 65.1528 88.153 65.3555 87.5498L68.8306 77.2163L86.1453 94.5651C86.4234 94.8433 86.8004 95 87.1937 95H87.1954C87.5881 95 87.9651 94.8444 88.2437 94.5663L94.5655 88.2525C95.1441 87.6753 95.1447 86.7396 94.5679 86.1613ZM87.1971 91.425L69.2384 73.4307C68.9569 73.1491 68.5775 72.9959 68.1883 72.9959C68.0759 72.9959 67.9624 73.0086 67.8506 73.0346C67.3508 73.1514 66.9465 73.5186 66.7832 74.005L63.9602 82.3984L54.8161 54.8102L82.4478 63.9403L74.0404 66.7584C73.5539 66.9214 73.1867 67.3239 73.0691 67.8219C72.9515 68.3203 73.0998 68.8437 73.4618 69.2063L91.4229 87.2046L87.1971 91.425Z" fill="#24281F"/>
<path d="M22.5 0C10.0931 0 0 10.0931 0 22.5C0 34.9069 10.0931 45 22.5 45C34.9069 45 45 34.9069 45 22.5C45 10.0931 34.9069 0 22.5 0ZM22.5 40.4998C12.5748 40.4998 4.50018 32.4252 4.50018 22.5C4.50018 12.5748 12.5748 4.50018 22.5 4.50018C32.4252 4.50018 40.4998 12.5748 40.4998 22.5C40.4998 32.4252 32.4252 40.4998 22.5 40.4998Z" fill="#24281F"/>
<path d="M93.5 45C105.907 45 116 34.9069 116 22.5C116 10.0931 105.907 0 93.5 0C81.094 0 71 10.0931 71 22.5C71 34.9069 81.094 45 93.5 45ZM93.5 4.50018C103.425 4.50018 111.5 12.5748 111.5 22.5C111.5 32.4252 103.425 40.4998 93.5 40.4998C83.5748 40.4998 75.5002 32.4252 75.5002 22.5C75.5002 12.5748 83.5748 4.50018 93.5 4.50018Z" fill="#24281F"/>
<path d="M20.0149 29.6612C19.5789 29.6612 19.2123 29.5266 18.9151 29.2572C18.6377 28.9686 18.4989 28.6127 18.4989 28.1895C18.4989 27.4391 18.6971 26.6215 19.0934 25.7365C19.4897 24.8323 20.104 24.0339 20.9363 23.3413C21.4912 22.8795 21.9965 22.4274 22.4522 21.9849C22.9278 21.5232 23.3043 21.0038 23.5817 20.4266C23.879 19.8302 24.0276 19.1087 24.0276 18.2622C24.0276 17.6466 23.879 17.0694 23.5817 16.5307C23.2845 15.9921 22.8585 15.5592 22.3036 15.2321C21.7686 14.8858 21.1047 14.7127 20.3121 14.7127C18.8655 14.7127 17.7856 15.0974 17.0722 15.867C16.3786 16.6173 16.0318 17.6081 16.0318 18.8394C16.0318 19.2627 15.8931 19.6186 15.6157 19.9072C15.3383 20.1765 14.9717 20.3112 14.5159 20.3112C14.08 20.3112 13.7134 20.1765 13.4161 19.9072C13.1387 19.6186 13 19.2627 13 18.8394C13 17.4927 13.2972 16.3095 13.8917 15.2898C14.506 14.2702 15.3581 13.4718 16.448 12.8946C17.5577 12.2982 18.8457 12 20.3121 12C21.6001 12 22.7396 12.2693 23.7304 12.808C24.741 13.3275 25.5336 14.0586 26.1083 15.0013C26.7028 15.9247 27 17.0117 27 18.2622C27 19.3396 26.8217 20.2727 26.465 21.0615C26.1083 21.8503 25.6228 22.5621 25.0085 23.197C24.3942 23.8126 23.6907 24.4283 22.8981 25.0439C22.3829 25.4479 22.0262 25.977 21.828 26.6311C21.6299 27.266 21.5308 27.7854 21.5308 28.1895C21.5308 28.6127 21.3921 28.9686 21.1147 29.2572C20.8372 29.5266 20.4706 29.6612 20.0149 29.6612ZM20.0149 35C19.46 35 18.9745 34.8076 18.5584 34.4228C18.1621 34.0188 17.9639 33.5475 17.9639 33.0088C17.9639 32.4509 18.1621 31.9795 18.5584 31.5947C18.9745 31.1907 19.46 30.9887 20.0149 30.9887C20.5895 30.9887 21.075 31.1907 21.4713 31.5947C21.8875 31.9795 22.0955 32.4509 22.0955 33.0088C22.0955 33.5475 21.8875 34.0188 21.4713 34.4228C21.075 34.8076 20.5895 35 20.0149 35Z" fill="#24281F"/>
<path d="M92 28.5519C91.5749 28.5519 91.2174 28.4046 90.9275 28.1101C90.657 27.796 90.5217 27.4426 90.5217 27.0499V12.5314C90.5217 12.0994 90.657 11.7362 90.9275 11.4417C91.2174 11.1472 91.5749 11 92 11C92.4251 11 92.7729 11.1472 93.0435 11.4417C93.3333 11.7362 93.4783 12.0994 93.4783 12.5314V27.0499C93.4783 27.4622 93.3237 27.8156 93.0145 28.1101C92.7246 28.4046 92.3865 28.5519 92 28.5519ZM92 34C91.4589 34 90.9855 33.8037 90.5797 33.411C90.1932 33.0184 90 32.5373 90 31.968C90 31.3986 90.1932 30.9176 90.5797 30.525C90.9855 30.1127 91.4589 29.9065 92 29.9065C92.5604 29.9065 93.0338 30.1127 93.4203 30.525C93.8068 30.9176 94 31.3986 94 31.968C94 32.5373 93.7971 33.0184 93.3913 33.411C93.0048 33.8037 92.5411 34 92 34Z" fill="#24281F"/>
</svg>
