<svg width="70" height="70" viewBox="0 0 70 70" fill="none" xmlns="http://www.w3.org/2000/svg">
<g clip-path="url(#clip0)">
<path d="M19.7438 10.8434C16.4658 10.8434 13.8083 13.5008 13.8083 16.7789V54.0039H19.6887V63.9642C19.7071 63.9644 19.7253 63.9656 19.7438 63.9656H20.6642L30.6259 54.0039H63.1642C66.1843 54.0039 68.6328 51.5554 68.6328 48.5352V10.8434H19.7438Z" fill="#F3D8D8"/>
<path d="M35.0009 37.3483C33.4907 37.3483 32.2667 36.1241 32.2667 34.6141V29.4189C32.2667 27.9087 33.4909 26.6846 35.0009 26.6846C38.0163 26.6846 40.4696 24.2314 40.4696 21.216C40.4696 18.2007 38.0163 15.7474 35.0009 15.7474C31.9856 15.7474 29.5323 18.2007 29.5323 21.216C29.5323 22.7262 28.3082 23.9503 26.7981 23.9503C25.2879 23.9503 24.0639 22.7261 24.0639 21.216C24.0639 15.1852 28.9703 10.2788 35.0011 10.2788C41.0319 10.2788 45.9383 15.1852 45.9383 21.216C45.9383 26.3031 42.4475 30.59 37.7355 31.8072V34.6141C37.7352 36.1241 36.511 37.3483 35.0009 37.3483Z" fill="white"/>
<path d="M35.0009 48.7129C34.2818 48.7129 33.5763 48.4203 33.0676 47.9117C32.5577 47.4031 32.2665 46.6977 32.2665 45.9785C32.2665 45.258 32.5577 44.5539 33.0676 44.0453C33.5763 43.5353 34.2818 43.2441 35.0009 43.2441C35.72 43.2441 36.4255 43.5353 36.9341 44.0453C37.4427 44.5539 37.7353 45.2594 37.7353 45.9785C37.7353 46.6977 37.4425 47.4031 36.9341 47.9117C36.4254 48.4203 35.7199 48.7129 35.0009 48.7129Z" fill="white"/>
<path d="M7.93 23.2876C7.56906 23.2876 7.2177 23.1427 6.9634 22.887C6.70773 22.6327 6.56281 22.2813 6.56281 21.9204C6.56281 21.5608 6.70773 21.2081 6.9634 20.9538C7.2177 20.6995 7.56906 20.5532 7.93 20.5532C8.28957 20.5532 8.6423 20.6995 8.8966 20.9538C9.1509 21.2081 9.29719 21.5608 9.29719 21.9204C9.29719 22.2813 9.1509 22.6327 8.8966 22.887C8.64217 23.1427 8.28943 23.2876 7.93 23.2876Z" fill="#24281F"/>
<path d="M63.1642 3.69214H6.8358C3.06646 3.69214 0 6.75874 0 10.5279V48.5348C0 52.304 3.06646 55.3706 6.8358 55.3706H18.3217V64.9406C18.3217 65.4935 18.6549 65.9921 19.1656 66.2038C19.3348 66.2739 19.5124 66.3079 19.6885 66.3079C20.0443 66.3079 20.3941 66.1689 20.6556 65.9075L31.1924 55.3707H39.3075C40.0626 55.3707 40.6746 54.7586 40.6746 54.0035C40.6746 53.2484 40.0626 52.6364 39.3075 52.6364H30.6261C30.2635 52.6364 29.9157 52.7805 29.6594 53.0368L21.0561 61.6401V54.0034C21.0561 53.2483 20.444 52.6362 19.6889 52.6362H6.83594C4.57434 52.6362 2.73451 50.7963 2.73451 48.5348V10.5281C2.73451 8.35849 4.42818 6.57813 6.5625 6.43677V16.7935C6.5625 17.5486 7.17459 18.1607 7.92969 18.1607C8.68478 18.1607 9.29688 17.5486 9.29688 16.7935V6.42651H63.1645C65.4261 6.42651 67.2659 8.26647 67.2659 10.5279V48.5348C67.2659 50.7964 65.4259 52.6362 63.1645 52.6362H51.8854C51.1304 52.6362 50.5183 53.2483 50.5183 54.0034C50.5183 54.7585 51.1304 55.3706 51.8854 55.3706H63.1645C66.9337 55.3706 70.0003 52.3041 70.0003 48.5348V10.5279C70 6.75874 66.9335 3.69214 63.1642 3.69214Z" fill="#24281F"/>
<path d="M45.938 55.3705C45.5784 55.3705 45.2257 55.2242 44.9714 54.9699C44.7171 54.7156 44.5708 54.3629 44.5708 54.0033C44.5708 53.6437 44.7171 53.291 44.9714 53.0367C45.2257 52.7824 45.5784 52.6361 45.938 52.6361C46.2976 52.6361 46.6503 52.7824 46.9046 53.0367C47.1589 53.291 47.3052 53.6437 47.3052 54.0033C47.3052 54.3629 47.1589 54.7156 46.9046 54.9699C46.6503 55.2242 46.2976 55.3705 45.938 55.3705Z" fill="#24281F"/>
<path d="M35.0009 38.7155C32.7393 38.7155 30.8995 36.8755 30.8995 34.6141V29.4189C30.8995 27.1573 32.7395 25.3175 35.0009 25.3175C37.2624 25.3175 39.1024 23.4775 39.1024 21.216C39.1024 18.9546 37.2624 17.1146 35.0009 17.1146C32.7395 17.1146 30.8995 18.9546 30.8995 21.216C30.8995 23.4775 29.0596 25.3175 26.7981 25.3175C24.5366 25.3175 22.6967 23.4775 22.6967 21.216C22.6967 14.4314 28.2164 8.91162 35.0011 8.91162C41.7857 8.91162 47.3055 14.4314 47.3055 21.216C47.3055 26.4679 43.9824 31.0957 39.1026 32.8183V34.6142C39.1024 36.8755 37.2624 38.7155 35.0009 38.7155ZM35.0009 14.3801C38.7701 14.3801 41.8367 17.4466 41.8367 21.2159C41.8367 24.9852 38.7703 28.0517 35.0009 28.0517C34.2471 28.0517 33.6338 28.665 33.6338 29.4189V34.6141C33.6338 35.3679 34.2471 35.9812 35.0009 35.9812C35.7548 35.9812 36.3681 35.3679 36.3681 34.6141V31.8072C36.3681 31.1838 36.7898 30.6394 37.3934 30.4835C41.6195 29.392 44.5711 25.5811 44.5711 21.216C44.5711 15.9391 40.278 11.646 35.0011 11.646C29.7241 11.646 25.431 15.9391 25.431 21.216C25.431 21.9699 26.0444 22.5832 26.7982 22.5832C27.5521 22.5832 28.1654 21.9699 28.1654 21.216C28.1651 17.4466 31.2316 14.3801 35.0009 14.3801Z" fill="#24281F"/>
<path d="M35.0009 50.0802C33.9215 50.0802 32.8645 49.6421 32.101 48.8786C31.3378 48.1174 30.8995 47.0599 30.8995 45.9787C30.8995 44.8974 31.3379 43.8399 32.1022 43.0777C32.8622 42.3158 33.9196 41.8773 35.0009 41.8773C36.0823 41.8773 37.1399 42.3159 37.9021 43.0803C38.6644 43.8427 39.1023 44.8996 39.1023 45.9787C39.1023 47.058 38.6643 48.115 37.9007 48.8786C37.1373 49.6421 36.0803 50.0802 35.0009 50.0802ZM35.0009 44.6116C34.646 44.6116 34.2852 44.7609 34.0357 45.011C33.7793 45.2667 33.6337 45.6185 33.6337 45.9787C33.6337 46.3337 33.783 46.6945 34.0331 46.9438C34.2853 47.1961 34.6465 47.3459 35.0009 47.3459C35.3551 47.3459 35.7164 47.1961 35.9672 46.9452C36.2182 46.6942 36.3681 46.3328 36.3681 45.9787C36.3681 45.6246 36.2182 45.2633 35.9672 45.0124C35.7165 44.7607 35.3557 44.6116 35.0009 44.6116Z" fill="#24281F"/>
</g>
<defs>
<clipPath id="clip0">
<rect width="70" height="70" fill="white"/>
</clipPath>
</defs>
</svg>
