<svg width="92" height="90" viewBox="0 0 92 90" fill="none" xmlns="http://www.w3.org/2000/svg">
<g clip-path="url(#clip0)">
<path fill-rule="evenodd" clip-rule="evenodd" d="M87.1244 16.7074C85.6339 16.7074 84.2148 16.5808 82.9245 16.3527C81.6334 16.5808 80.2143 16.7074 78.7238 16.7074C77.9128 16.7074 77.1235 16.669 76.3635 16.5976V69.6138C76.3635 71.4696 79.0681 73.0615 82.9238 73.7431C86.7801 73.0615 89.4847 71.4696 89.4847 69.6138V16.5976C88.7247 16.6683 87.9354 16.7074 87.1244 16.7074Z" fill="#FEB756"/>
<path fill-rule="evenodd" clip-rule="evenodd" d="M82.9245 8.09485C79.0681 8.77641 76.3635 10.3684 76.3635 12.2234C76.3635 14.0792 79.0681 15.6711 82.9245 16.3527C86.7801 15.6711 89.4847 14.0792 89.4847 12.2234C89.4847 10.3684 86.7801 8.77641 82.9245 8.09485Z" fill="#FFE169"/>
<path d="M76.3384 9.5916C76.3929 9.5916 76.4475 9.5888 76.5028 9.5839L76.549 9.5797C77.5356 9.49013 78.2627 8.61754 78.1731 7.63088C78.0836 6.64423 77.2096 5.91718 76.2243 6.00745L76.1781 6.01165C75.1922 6.10122 74.4651 6.97381 74.5547 7.95977C74.6394 8.89114 75.4217 9.5916 76.3384 9.5916Z" fill="#24281F"/>
<path fill-rule="evenodd" clip-rule="evenodd" d="M91.1282 11.1196C90.4891 8.93014 87.8372 7.19649 83.7648 6.37572C82.7943 6.17979 81.8482 6.80887 81.6523 7.77943C81.457 8.75069 82.0854 9.69606 83.056 9.89199C86.5813 10.6029 87.6912 11.8737 87.6912 12.1697C87.6912 12.3768 87.1754 13.0465 85.643 13.6847C83.8509 14.432 81.329 14.8603 78.7245 14.8603C76.1193 14.8603 73.5974 14.432 71.8053 13.6847C70.2728 13.0465 69.7571 12.3768 69.7571 12.1697C69.7571 12.0388 70.121 11.3566 71.8053 10.6554C72.7192 10.2741 73.1516 9.22442 72.771 8.30984C72.3896 7.39526 71.3393 6.96281 70.4254 7.34418C66.723 8.88714 66.1702 11.0298 66.1702 12.1697V69.5608C66.1702 73.6817 72.4855 75.8376 78.7245 75.8376C82.0014 75.8376 85.2987 75.2414 87.6912 74.0798L89.2436 73.1281C90.0513 72.4999 91.1282 71.0758 91.1282 69.7028V11.1196ZM85.643 28.0324C87.1754 27.3943 87.6912 26.7246 87.6912 26.5175V23.8626C85.2987 25.0249 82.0014 25.6211 78.7245 25.6211C75.4468 25.6211 72.1496 25.0249 69.7571 23.8626V26.5175C69.7571 26.7246 70.2728 27.3943 71.8053 28.0324C73.5974 28.7798 76.1193 29.208 78.7245 29.208C81.329 29.208 83.8509 28.7798 85.643 28.0324ZM87.6912 31.0365C85.2987 32.1988 82.0014 32.795 78.7245 32.795C75.4468 32.795 72.1496 32.1988 69.7571 31.0365V33.6914C69.7571 33.8985 70.2728 34.5675 71.8053 35.2063C73.5974 35.953 76.1193 36.3819 78.7245 36.3819C81.329 36.3819 83.8509 35.953 85.643 35.2063C87.1754 34.5682 87.6912 33.8985 87.6912 33.6914V31.0365ZM87.6912 38.2104C85.2987 39.3727 82.0014 39.9689 78.7245 39.9689C75.4468 39.9689 72.1496 39.3727 69.7571 38.2104V40.8653C69.7571 41.0724 70.2728 41.7414 71.8053 42.3802C73.5974 43.1269 76.1193 43.5558 78.7245 43.5558C81.329 43.5558 83.8509 43.1269 85.643 42.3802C87.1754 41.7421 87.6912 41.0724 87.6912 40.8653V38.2104ZM87.6912 45.3843C85.2987 46.5466 82.0014 47.1421 78.7245 47.1421C75.4468 47.1421 72.1496 46.5466 69.7571 45.3843V48.0392C69.7571 48.2463 70.2728 48.9152 71.8053 49.5541C73.5974 50.3008 76.1193 50.729 78.7245 50.729C81.329 50.729 83.8509 50.3008 85.643 49.5541C87.1754 48.9152 87.6912 48.2463 87.6912 48.0392V45.3843ZM87.6912 52.5582C85.2987 53.7205 82.0014 54.316 78.7245 54.316C75.4468 54.316 72.1496 53.7205 69.7571 52.5582V55.213C69.7571 55.4202 70.2728 56.0891 71.8053 56.728C73.5974 57.4746 76.1193 57.9029 78.7245 57.9029C81.329 57.9029 83.8509 57.4746 85.643 56.728C87.1754 56.0891 87.6912 55.4202 87.6912 55.213V52.5582ZM78.7245 61.4898C75.4468 61.4898 72.1496 60.8944 69.7571 59.7321V62.3869C69.7571 62.5941 70.2728 63.263 71.8053 63.9019C73.5974 64.6485 76.1193 65.0768 78.7245 65.0768C81.329 65.0768 83.8509 64.6485 85.643 63.9019C87.1754 63.263 87.6912 62.5941 87.6912 62.3869V59.7321C85.2987 60.8944 82.0014 61.4898 78.7245 61.4898ZM87.6912 16.6894C85.2987 17.851 82.0014 18.4472 78.7245 18.4472C75.4468 18.4472 72.1496 17.851 69.7571 16.6894V19.3436C69.7571 19.5507 70.2728 20.2204 71.8053 20.8586C73.5974 21.6059 76.1193 22.0341 78.7245 22.0341C81.329 22.0341 83.8509 21.6059 85.643 20.8586C87.1754 20.2204 87.6912 19.5507 87.6912 19.3436V16.6894ZM78.7245 72.2514C81.329 72.2514 83.8509 71.8224 85.643 71.0758C87.1754 70.4376 87.6912 69.7679 87.6912 69.5608V66.906C85.2987 68.0675 82.0014 68.6637 78.7245 68.6637C75.4468 68.6637 72.1496 68.0682 69.7571 66.906V69.5608C69.7571 69.7679 70.2728 70.4369 71.8053 71.0758C73.5974 71.8224 76.1193 72.2514 78.7245 72.2514Z" fill="#24281F"/>
</g>
<path d="M11.6016 32.9189H7.29492V68.0752H11.6016V32.9189Z" fill="#F3D8D8"/>
<path d="M69.9999 37.0004L53.4063 36.5465H35.5154L44.7072 31.5826C45.7621 31.0129 46.4961 30.0774 46.8349 29.016L37.2328 31.3324C34.3561 32.0264 31.6452 33.2826 29.256 35.0284L20.6292 41.3326V68.8287C24.2217 69.8428 27.938 70.3596 31.6746 70.3596H46.5068C48.8412 70.3596 50.7335 68.4673 50.7335 66.1329C50.7335 63.7985 48.8412 61.9062 46.5068 61.9062H47.619H49.6215C51.9559 61.9062 53.8482 60.014 53.8482 57.6796C53.8482 55.3452 51.9559 53.4529 49.6215 53.4529H52.2987C54.6329 53.4529 56.5253 51.5606 56.5253 49.2263C56.5253 46.8919 54.6329 44.9996 52.2987 44.9996H69.0821C71.2264 44.9996 72.9967 43.4023 73.2708 41.3326L69.9999 37.0004Z" fill="white"/>
<path d="M69.082 46.9336C72.3818 46.9336 75.0665 44.249 75.0665 40.9491C75.0665 37.6492 72.3818 34.9646 69.082 34.9646H60.1172C59.1465 34.9646 58.3594 35.7516 58.3594 36.7224C58.3594 37.6933 59.1465 38.4803 60.1172 38.4803H69.082C70.4433 38.4803 71.5509 39.5879 71.5509 40.9491C71.5509 42.3104 70.4433 43.418 69.082 43.418H41.3481C40.3775 43.418 39.5903 44.2049 39.5903 45.1758C39.5903 46.1464 40.3775 46.9336 41.3481 46.9336H52.2988C53.66 46.9336 54.7676 48.0412 54.7676 49.4024C54.7676 50.7637 53.66 51.8713 52.2988 51.8713H41.3481C40.3775 51.8713 39.5903 52.6584 39.5903 53.6291C39.5903 54.5997 40.3775 55.3869 41.3481 55.3869H49.6215C50.9829 55.3869 52.0905 56.4945 52.0905 57.8557C52.0905 59.2172 50.9829 60.3248 49.6215 60.3248H41.3481C40.3775 60.3248 39.5903 61.1119 39.5903 62.0826C39.5903 63.0532 40.3775 63.8404 41.3481 63.8404H46.5071C47.8684 63.8404 48.976 64.948 48.976 66.3092C48.976 67.6705 47.8684 68.7781 46.5071 68.7781H31.6747C27.7221 68.7781 23.8059 68.1785 20.0347 66.9957L13.3594 64.9025V58.7988C13.3594 57.8281 12.5722 57.041 11.6016 57.041C10.6309 57.041 9.84375 57.8281 9.84375 58.7988V66.1809C9.84375 66.1872 9.84375 66.1936 9.84375 66.2001V66.4929H3.51562V34.8523H9.84375V44.2969C9.84375 45.2677 10.6309 46.0547 11.6016 46.0547C12.5722 46.0547 13.3594 45.2677 13.3594 44.2969V37.6151L21.2657 31.8375C23.4791 30.2199 25.9525 29.0738 28.6175 28.431L41.9563 25.213C43.18 24.9172 44.4319 25.4967 44.9993 26.6212C45.6622 27.9353 45.167 29.5124 43.872 30.2119L34.6804 35.1757C33.9724 35.5582 33.6143 36.3728 33.8115 37.1533C34.0088 37.9338 34.7108 38.4803 35.5157 38.4803H46.2305C47.2011 38.4803 47.9883 37.6933 47.9883 36.7224C47.9883 35.7516 47.2011 34.9646 46.2305 34.9646H42.4696L45.5423 33.3053C48.5241 31.6949 49.6642 28.0635 48.1379 25.0377C46.8315 22.4487 43.9509 21.1159 41.1316 21.7955L27.7929 25.0135C24.6749 25.7656 21.7809 27.1067 19.1911 28.9991L13.3594 33.2608V33.0945C13.3594 32.1237 12.5722 31.3367 11.6016 31.3367H1.75781C0.787148 31.3367 0 32.1237 0 33.0945V68.2507C0 69.2214 0.787148 70.0086 1.75781 70.0086H11.6016C12.4606 70.0086 13.1748 69.3917 13.3279 68.5772L18.9826 70.3504C23.0947 71.64 27.3647 72.2939 31.6745 72.2939H46.507C49.8067 72.2939 52.4914 69.6094 52.4914 66.3094C52.4914 65.2721 52.2258 64.2957 51.7595 63.4444C54.0063 62.5818 55.6061 60.4028 55.6061 57.8559C55.6061 56.7575 55.3073 55.7281 54.7887 54.8423C56.8487 53.8956 58.2833 51.8141 58.2833 49.4026C58.2833 48.5225 58.0908 47.687 57.7482 46.9338L69.082 46.9336Z" fill="#24281F"/>
<path d="M53.2407 38.3043C53.703 38.3043 54.1565 38.1162 54.4835 37.7893C54.8103 37.4623 54.9985 37.0088 54.9985 36.5465C54.9985 36.0842 54.8105 35.6307 54.4835 35.3037C54.1565 34.9768 53.703 34.7887 53.2407 34.7887C52.7784 34.7887 52.3249 34.9768 51.9979 35.3037C51.6712 35.6307 51.4829 36.0842 51.4829 36.5465C51.4829 37.0088 51.671 37.4623 51.9979 37.7893C52.3249 38.1162 52.7784 38.3043 53.2407 38.3043Z" fill="#24281F"/>
<path d="M11.6016 49.2188C11.1393 49.2188 10.6857 49.4067 10.3588 49.7338C10.0318 50.0609 9.84375 50.5143 9.84375 50.9766C9.84375 51.4389 10.0317 51.8924 10.3588 52.2192C10.6857 52.5463 11.1393 52.7344 11.6016 52.7344C12.0639 52.7344 12.5174 52.5463 12.8442 52.2192C13.1713 51.8924 13.3594 51.4389 13.3594 50.9766C13.3594 50.5143 13.1713 50.0607 12.8442 49.7338C12.5174 49.4067 12.0639 49.2188 11.6016 49.2188Z" fill="#24281F"/>
<defs>
<clipPath id="clip0">
<rect width="25.1282" height="70" fill="white" transform="translate(66 6)"/>
</clipPath>
</defs>
</svg>
