<svg width="50" height="50" viewBox="0 0 50 50" fill="none" xmlns="http://www.w3.org/2000/svg">
<path d="M18.75 43.9453V6.05469C18.75 4.97589 19.6243 4.10156 20.7031 4.10156H10.1562C9.07745 4.10156 8.20312 4.97589 8.20312 6.05469V43.9453C8.20312 45.0241 9.07745 45.8984 10.1562 45.8984H20.7031C19.6243 45.8984 18.75 45.0241 18.75 43.9453Z" fill="white"/>
<path d="M41.7969 43.9453V12.6953L33.2031 4.10156H20.7031C19.6243 4.10156 18.75 4.97589 18.75 6.05469V43.9453C18.75 45.0241 19.6243 45.8984 20.7031 45.8984H39.8438C40.9225 45.8984 41.7969 45.0241 41.7969 43.9453Z" fill="#E0E0E0"/>
<path d="M41.7969 12.6953H35.8887C34.4055 12.6953 33.2031 11.4929 33.2031 10.0098V4.10156L41.7969 12.6953Z" fill="#FEB756"/>
<path d="M35.5694 31.0547H14.4306C13.8912 31.0547 13.4541 31.4919 13.4541 32.0312C13.4541 32.5706 13.8912 33.0078 14.4306 33.0078H35.5694C36.1088 33.0078 36.5459 32.5706 36.5459 32.0312C36.5459 31.4919 36.1088 31.0547 35.5694 31.0547Z" fill="#24281F"/>
<path d="M35.5694 16.9922H18.75C18.2106 16.9922 17.7734 17.4294 17.7734 17.9688C17.7734 18.5081 18.2106 18.9453 18.75 18.9453H35.5694C36.1088 18.9453 36.5459 18.5081 36.5459 17.9688C36.5459 17.4294 36.1088 16.9922 35.5694 16.9922Z" fill="#24281F"/>
<path d="M13.7402 17.2783C13.5586 17.4599 13.4541 17.712 13.4541 17.9688C13.4541 18.2255 13.5586 18.4776 13.7402 18.6592C13.9217 18.8408 14.1739 18.9453 14.4306 18.9453C14.6873 18.9453 14.9395 18.8408 15.1211 18.6592C15.3027 18.4776 15.4072 18.2255 15.4072 17.9688C15.4072 17.712 15.3027 17.4599 15.1211 17.2783C14.9395 17.0967 14.6873 16.9922 14.4306 16.9922C14.1739 16.9922 13.9217 17.0967 13.7402 17.2783Z" fill="#24281F"/>
<path d="M14.4306 11.9141H21.4226C21.962 11.9141 22.3991 11.4769 22.3991 10.9375C22.3991 10.3981 21.962 9.96094 21.4226 9.96094H14.4306C13.8912 9.96094 13.4541 10.3981 13.4541 10.9375C13.4541 11.4769 13.8912 11.9141 14.4306 11.9141Z" fill="#24281F"/>
<path d="M35.5694 24.0234H14.4306C13.8912 24.0234 13.4541 24.4606 13.4541 25C13.4541 25.5394 13.8912 25.9766 14.4306 25.9766H35.5694C36.1088 25.9766 36.5459 25.5394 36.5459 25C36.5459 24.4606 36.1088 24.0234 35.5694 24.0234Z" fill="#24281F"/>
<path d="M35.5694 38.0859C35.3127 38.0859 35.0605 38.1905 34.8789 38.372C34.6973 38.5536 34.5928 38.8058 34.5928 39.0625C34.5928 39.3192 34.6973 39.5714 34.8789 39.753C35.0605 39.9345 35.3127 40.0391 35.5694 40.0391C35.8261 40.0391 36.0783 39.9345 36.2598 39.753C36.4414 39.5714 36.5459 39.3192 36.5459 39.0625C36.5459 38.8058 36.4414 38.5536 36.2598 38.372C36.0783 38.1905 35.8261 38.0859 35.5694 38.0859Z" fill="#24281F"/>
<path d="M30.9692 38.0859H14.4306C13.8912 38.0859 13.4541 38.5231 13.4541 39.0625C13.4541 39.6019 13.8912 40.0391 14.4306 40.0391H30.9692C31.5086 40.0391 31.9458 39.6019 31.9458 39.0625C31.9458 38.5231 31.5086 38.0859 30.9692 38.0859Z" fill="#24281F"/>
<path fill-rule="evenodd" clip-rule="evenodd" d="M42.4873 12.0049C42.6739 12.1914 42.7708 12.4409 42.7711 12.6945C42.7719 12.6945 42.7727 12.6949 42.7734 12.6953V43.9453C42.7734 45.5608 41.4593 46.875 39.8438 46.875H39.0183L39.0137 46.8262H9.62187C8.26065 46.5743 7.22656 45.3784 7.22656 43.9453V6.05469C7.22656 4.43916 8.54073 3.125 10.1562 3.125H33.2031V3.12729C33.4572 3.12729 33.7067 3.22418 33.8936 3.4111L42.4873 12.0049ZM39.4394 11.7188L34.1797 6.45905V10.0098C34.1797 10.952 34.9464 11.7188 35.8887 11.7188H39.4394ZM10.1562 44.9219H39.8438C40.3824 44.9219 40.8203 44.4839 40.8203 43.9453V13.6719H35.8887C33.8692 13.6719 32.2266 12.0293 32.2266 10.0098V5.07812H10.1562C9.61761 5.07812 9.17969 5.51605 9.17969 6.05469V43.9453C9.17969 44.4839 9.61761 44.9219 10.1562 44.9219Z" fill="#24281F"/>
</svg>
